<?xml version="1.0" standalone="no"?>
<!DOCTYPE svg PUBLIC "-//W3C//DTD SVG 20010904//EN"
 "http://www.w3.org/TR/2001/REC-SVG-20010904/DTD/svg10.dtd">
                <svg width="161" height="185" viewBox="0 0 161 185" fill="none" xmlns="http://www.w3.org/2000/svg">
<g clip-path="url(#clip0_17_6051)">
<rect y="23" width="161" height="162" fill="#002B2E"/>
<rect x="5.41895" y="29" width="150" height="150" fill="#2EFFD9"/>
<mask id="mask0_17_6051" style="mask-type:alpha" maskUnits="userSpaceOnUse" x="21" y="0" width="135" height="136">
<rect x="21.2793" width="134" height="136" fill="#D9D9D9"/>
</mask>
<g mask="url(#mask0_17_6051)">
<path d="M40.6219 76.1092L28.7033 69.1332L38.3369 7.68661L51.4996 15.3892L42.2242 59.2264L76.3727 29.9467L89.366 37.1455L40.6315 76.1092H40.6219Z" fill="#002B2E"/>
<path d="M78.527 97.8122L66.6084 90.8362L76.2372 29.3896L89.3999 37.0922L80.2794 80.7695L114.128 51.7708L129.038 60.4326L78.5221 97.8122H78.527Z" fill="#002B2E"/>
<path d="M66.9667 91.2141L55.0481 84.2381L64.6769 22.7915L78.419 30.5L68.9369 74.2732L102.708 45.0516L116.171 52.5459L66.9667 91.2093V91.2141Z" fill="#2EFFD9"/>
<path d="M29.9396 70.3506L18.045 63.3158L27.6544 1.35059L40.7907 9.11821L31.906 53.2667L64.4189 22.5L78.045 30.3506L29.9396 70.3457V70.3506Z" fill="#2EFFD9"/>
<path d="M128.326 125.871L116.408 118.895L126.037 57.4485L139.199 65.1511L129.924 108.988L164.072 79.7086L166.067 95.5547L128.331 125.866L128.326 125.871Z" fill="#002B2E"/>
<path d="M117.037 119.278L105.119 112.302L114.747 50.8552L127.91 58.5579L119.007 102.337L152.347 72.5243L165.636 80.1058L117.037 119.273V119.278Z" fill="#2EFFD9"/>
<path d="M150.087 128.017L142.753 134L152.381 72.5534L170.414 84.4125L156.375 120.746" fill="#2EFFD9"/>
</g>
<path d="M40.5689 136L46.4069 115.336H40.1489L37.3769 127.768L34.5209 115.336H28.3469L25.9529 127.768L22.9289 115.336H16.5449L22.3409 136H28.5569L31.4549 124.954L34.3529 136H40.5689Z" fill="#002B2E"/>
<path d="M52.0579 123.568C52.2679 120.964 53.7379 119.62 55.8379 119.62C57.9379 119.62 59.4499 120.838 59.6179 123.568H52.0579ZM65.7079 127.222V126.34C65.7079 118.696 62.2639 114.79 55.9219 114.79C49.5379 114.79 45.8419 118.906 45.8419 125.29C45.8419 132.766 49.3279 136.546 56.2999 136.546C60.7519 136.546 64.1959 134.152 65.4559 129.91H59.1979C58.9039 131.002 57.5179 131.716 56.0059 131.716C53.6959 131.716 52.0999 129.826 51.9319 127.222H65.7079Z" fill="#002B2E"/>
<path d="M77.462 131.59C75.068 131.59 73.304 129.616 73.304 125.962C73.304 121.846 74.816 119.998 77.462 119.998C80.15 119.998 81.578 121.762 81.578 125.794C81.578 129.574 79.94 131.59 77.462 131.59ZM73.388 136L73.43 133.564C74.648 135.664 76.664 136.546 78.806 136.546C84.014 136.546 87.752 132.388 87.752 125.458C87.752 119.326 84.686 114.79 79.352 114.79C76.874 114.79 74.816 115.672 73.514 117.856V107.776H67.55V136H73.388Z" fill="#002B2E"/>
<path d="M35.4029 151.594C35.1089 147.142 32.5049 144.79 26.4569 144.79C19.8629 144.79 17.5529 147.562 17.5529 150.922C17.5529 153.064 18.4769 155.038 21.2489 156.424C22.6349 157.096 23.7689 157.432 27.3389 158.314C29.1869 158.776 30.0689 159.154 30.0689 160.246C30.0689 161.632 28.6829 162.178 26.9609 162.178C24.3989 162.178 23.0129 161.002 23.0129 159.364H16.7969C16.9229 163.732 20.4509 166.546 26.9189 166.546C33.3029 166.546 35.9909 163.816 35.9909 159.784C35.9909 156.928 34.6469 155.542 32.7149 154.618C30.6569 153.652 28.2209 153.19 26.2469 152.686C24.5249 152.224 23.3489 151.72 23.3489 150.628C23.3489 149.662 24.3149 148.906 26.3309 148.906C28.6829 148.906 29.5229 149.914 29.6909 151.594H35.4029Z" fill="#002B2E"/>
<path d="M54.2084 152.392H48.5384V158.02C48.5384 160.12 47.6984 161.254 45.8504 161.254C43.9604 161.254 43.1624 160.12 43.1624 157.978V149.62H54.2084V145.336H43.1624V139.75H37.1984V158.23C37.1984 162.724 39.5084 166.546 45.7244 166.546C51.8564 166.546 54.2084 162.64 54.2084 158.272V152.392Z" fill="#002B2E"/>
<path d="M68.4497 158.062C68.4077 160.204 66.8957 162.22 63.9557 162.22C62.5277 162.22 61.7297 161.548 61.7297 160.246C61.7297 158.776 62.5697 157.978 65.4677 157.348C67.2317 156.97 68.0297 156.718 68.4917 156.298L68.4497 158.062ZM74.5397 166V152.938C74.5397 147.73 72.2717 144.79 65.6357 144.79C58.8737 144.79 56.5217 147.772 56.4377 152.056H61.9397C62.1497 150.502 63.0317 149.452 65.3417 149.452C67.0637 149.452 68.4077 150.082 68.4077 151.258C68.4077 152.56 67.7357 153.022 65.3837 153.358C59.8397 154.198 55.7657 155.206 55.7657 160.582C55.7657 164.278 57.8657 166.546 62.6117 166.546C65.6777 166.546 67.7357 165.58 68.7857 164.236C68.8277 164.866 68.9957 165.538 69.2057 166H74.5397Z" fill="#002B2E"/>
<path d="M95.7185 152.728C95.3825 147.856 91.6865 144.79 86.2265 144.79C80.3885 144.79 76.4825 148.024 76.4825 155.416C76.4825 162.808 80.3885 166.546 86.0585 166.546C91.1405 166.546 95.0885 163.312 95.6765 158.524H89.5445C89.3765 160.456 87.9065 161.464 86.0165 161.464C84.2105 161.464 82.4885 159.448 82.4885 155.29C82.4885 151.09 84.2105 149.83 86.1845 149.83C87.9485 149.83 89.2925 150.922 89.5865 152.728H95.7185Z" fill="#002B2E"/>
<path d="M116.23 166L109.72 152.896L116.398 145.336H108.964L103.336 152.392V137.776H97.2043V166H103.336V159.364L105.352 157.138L109.384 166H116.23Z" fill="#002B2E"/>
</g>
<defs>
<clipPath id="clip0_17_6051">
<rect width="161" height="185" fill="white"/>
</clipPath>
</defs>
</svg>
