<?xml version="1.0" standalone="no"?>
<!DOCTYPE svg PUBLIC "-//W3C//DTD SVG 20010904//EN"
 "http://www.w3.org/TR/2001/REC-SVG-20010904/DTD/svg10.dtd">
<svg version="1.0" xmlns="http://www.w3.org/2000/svg"
 width="700.000000pt" height="700.000000pt" viewBox="0 0 700.000000 700.000000"
 preserveAspectRatio="xMidYMid meet">
<metadata>
Created by potrace 1.14, written by Peter Selinger 2001-2017
</metadata>
<g transform="translate(0.000000,700.000000) scale(0.100000,-0.100000)"
fill="#000000" stroke="none">
<path d="M1656 6042 c-11 -35 -355 -1737 -351 -1740 5 -5 600 529 607 546 13
28 199 923 196 939 -2 9 -91 67 -198 130 -260 153 -247 147 -254 125z"/>
<path d="M3032 4443 c-159 -783 -195 -975 -190 -998 2 -8 122 89 298 241 162
141 298 259 303 263 12 12 208 964 200 972 -7 6 -454 269 -458 269 -1 0 -70
-336 -153 -747z"/>
<path d="M2214 4407 c-165 -133 -339 -273 -386 -312 -47 -38 -204 -164 -347
-279 -144 -115 -260 -210 -258 -212 1 -1 103 -61 225 -133 126 -74 229 -128
235 -124 12 7 694 548 711 564 5 4 33 162 62 351 29 189 55 353 57 366 2 12 4
22 3 22 0 0 -136 -109 -302 -243z"/>
<path d="M3703 3482 c-705 -554 -948 -750 -940 -758 7 -6 110 -68 230 -138
l219 -126 651 481 c359 265 656 485 661 490 7 7 137 789 132 796 -1 1 -429
-335 -953 -745z"/>
<path d="M5210 4047 c0 -2 -78 -388 -174 -858 -95 -470 -176 -866 -178 -881
l-5 -27 26 22 c98 82 583 522 587 531 5 15 191 894 196 926 3 22 -16 35 -207
148 -258 151 -245 144 -245 139z"/>
<path d="M5815 2434 c-386 -314 -495 -402 -772 -625 -145 -115 -263 -213 -263
-217 0 -4 100 -65 222 -136 200 -116 223 -128 242 -116 12 7 176 138 366 291
l346 277 53 344 c29 188 55 351 58 361 2 9 1 17 -4 16 -4 0 -116 -88 -248
-195z"/>
</g>
</svg>
