<svg width="118" height="140" viewBox="0 0 118 140" fill="none" xmlns="http://www.w3.org/2000/svg">
<g clip-path="url(#clip0_17_6289)">
<rect y="17.4053" width="117.978" height="122.595" fill="#002B2E"/>
<rect x="3.97095" y="21.9458" width="109.917" height="113.514" fill="#2EFFD9"/>
<mask id="mask0_17_6289" style="mask-type:alpha" maskUnits="userSpaceOnUse" x="15" y="0" width="99" height="103">
<rect x="15.593" width="98.1925" height="102.919" fill="#D9D9D9"/>
</mask>
<g mask="url(#mask0_17_6289)">
<path d="M29.7669 57.5961L21.0332 52.317L28.0925 5.81689L37.7379 11.6459L30.9411 44.82L55.9644 22.6624L65.4855 28.1101L29.774 57.5961H29.7669Z" fill="#002B2E"/>
<path d="M57.5428 74.02L48.8091 68.7409L55.8648 22.2407L65.5102 28.0697L58.8269 61.1228L83.6303 39.1779L94.5562 45.7328L57.5392 74.02H57.5428Z" fill="#002B2E"/>
<path d="M49.0718 69.0268L40.3381 63.7477L47.3939 17.2476L57.4638 23.081L50.5156 56.2066L75.2622 34.093L85.1275 39.7644L49.0718 69.0232V69.0268Z" fill="#2EFFD9"/>
<path d="M21.9391 53.2382L13.2229 47.9145L20.2645 1.02197L29.8905 6.90018L23.38 40.3098L47.2048 17.0269L57.1897 22.9679L21.9391 53.2345V53.2382Z" fill="#2EFFD9"/>
<path d="M94.0349 95.2539L85.3013 89.9748L92.357 43.4746L102.002 49.3036L95.2056 82.4777L120.229 60.3201L121.69 72.3117L94.0385 95.2502L94.0349 95.2539Z" fill="#002B2E"/>
<path d="M85.7622 90.2641L77.0286 84.985L84.0843 38.4849L93.7297 44.3139L87.206 77.4439L111.637 54.8831L121.374 60.6205L85.7622 90.2604V90.2641Z" fill="#2EFFD9"/>
<path d="M109.98 96.8779L104.606 101.405L111.662 54.9053L124.876 63.8798L114.589 91.3751" fill="#2EFFD9"/>
</g>
<path d="M29.7281 102.919L34.006 87.2811H29.4203L27.389 96.6891L25.2962 87.2811H20.772L19.0178 96.6891L16.8018 87.2811H12.1238L16.371 102.919H20.9259L23.0495 94.5596L25.1731 102.919H29.7281Z" fill="#002B2E"/>
<path d="M38.147 93.5108C38.3008 91.5402 39.378 90.5231 40.9169 90.5231C42.4557 90.5231 43.5637 91.4448 43.6868 93.5108H38.147ZM48.1494 96.276V95.6085C48.1494 89.8238 45.6257 86.868 40.9784 86.868C36.3004 86.868 33.592 89.9828 33.592 94.8139C33.592 100.471 36.1465 103.332 41.2554 103.332C44.5177 103.332 47.0414 101.52 47.9647 98.3101H43.379C43.1636 99.1365 42.1479 99.6768 41.04 99.6768C39.3473 99.6768 38.1777 98.2465 38.0546 96.276H48.1494Z" fill="#002B2E"/>
<path d="M56.7626 99.5815C55.0083 99.5815 53.7157 98.0876 53.7157 95.3224C53.7157 92.2076 54.8236 90.8091 56.7626 90.8091C58.7323 90.8091 59.7787 92.1441 59.7787 95.1953C59.7787 98.0558 58.5784 99.5815 56.7626 99.5815ZM53.7772 102.919L53.808 101.075C54.7005 102.664 56.1778 103.332 57.7474 103.332C61.5637 103.332 64.3029 100.185 64.3029 94.941C64.3029 90.3006 62.0562 86.868 58.1475 86.868C56.3317 86.868 54.8236 87.5354 53.8695 89.1882V81.5601H49.4992V102.919H53.7772Z" fill="#002B2E"/>
<path d="M25.9425 114.72C25.7271 111.351 23.8189 109.571 19.3871 109.571C14.5551 109.571 12.8624 111.668 12.8624 114.211C12.8624 115.832 13.5395 117.326 15.5708 118.375C16.5864 118.883 17.4174 119.138 20.0334 119.805C21.3876 120.155 22.0339 120.441 22.0339 121.267C22.0339 122.316 21.0183 122.729 19.7564 122.729C17.879 122.729 16.8634 121.839 16.8634 120.6H12.3084C12.4008 123.905 14.986 126.035 19.7256 126.035C24.4037 126.035 26.3734 123.969 26.3734 120.917C26.3734 118.756 25.3886 117.707 23.9728 117.008C22.4648 116.277 20.6797 115.927 19.2332 115.546C17.9714 115.196 17.1096 114.815 17.1096 113.989C17.1096 113.258 17.8175 112.685 19.2948 112.685C21.0183 112.685 21.6338 113.448 21.7569 114.72H25.9425Z" fill="#002B2E"/>
<path d="M39.7228 115.324H35.568V119.583C35.568 121.172 34.9524 122.03 33.5983 122.03C32.2133 122.03 31.6285 121.172 31.6285 119.551V113.226H39.7228V109.984H31.6285V105.757H27.2582V119.741C27.2582 123.142 28.951 126.035 33.5059 126.035C37.9993 126.035 39.7228 123.079 39.7228 119.773V115.324Z" fill="#002B2E"/>
<path d="M50.1585 119.614C50.1278 121.235 49.0198 122.761 46.8654 122.761C45.819 122.761 45.2343 122.252 45.2343 121.267C45.2343 120.155 45.8498 119.551 47.9734 119.074C49.266 118.788 49.8508 118.597 50.1893 118.279L50.1585 119.614ZM54.6212 125.621V115.737C54.6212 111.796 52.9592 109.571 48.0965 109.571C43.1414 109.571 41.4179 111.827 41.3564 115.069H45.3882C45.542 113.893 46.1883 113.099 47.8811 113.099C49.1429 113.099 50.1278 113.575 50.1278 114.465C50.1278 115.451 49.6353 115.8 47.9118 116.055C43.8493 116.69 40.864 117.453 40.864 121.521C40.864 124.318 42.4028 126.035 45.8806 126.035C48.1273 126.035 49.6353 125.304 50.4048 124.287C50.4355 124.763 50.5586 125.272 50.7125 125.621H54.6212Z" fill="#002B2E"/>
<path d="M70.1406 115.578C69.8944 111.891 67.186 109.571 63.185 109.571C58.9071 109.571 56.0448 112.018 56.0448 117.612C56.0448 123.206 58.9071 126.035 63.0619 126.035C66.7859 126.035 69.6789 123.587 70.1098 119.964H65.6164C65.4933 121.426 64.4161 122.189 63.0312 122.189C61.7078 122.189 60.4459 120.663 60.4459 117.517C60.4459 114.338 61.7078 113.385 63.1543 113.385C64.4469 113.385 65.4317 114.211 65.6472 115.578H70.1406Z" fill="#002B2E"/>
<path d="M85.1712 125.621L80.4008 115.705L85.2943 109.984H79.8468L75.7227 115.324V104.263H71.2293V125.621H75.7227V120.6L77.2 118.915L80.1546 125.621H85.1712Z" fill="#002B2E"/>
</g>
<defs>
<clipPath id="clip0_17_6289">
<rect width="117.978" height="140" fill="white"/>
</clipPath>
</defs>
</svg>
