<svg width="30" height="31" viewBox="0 0 30 31" fill="none" xmlns="http://www.w3.org/2000/svg">
<path d="M19.25 0.375L17.125 0.375V4.625H19.25L22.5703 4.625L11.3477 15.9141L9.82031 17.375L12.875 20.4297L14.3359 18.9023L25.625 7.67969L25.625 11V13.125L29.875 13.125V11L29.875 2.5V0.375L27.75 0.375L19.25 0.375ZM2.25 2.5L0.125 2.5L0.125 4.625L0.125 28L0.125 30.125H2.25L25.625 30.125H27.75V28V19.5V17.375H23.5V19.5V25.875L4.375 25.875L4.375 6.75L10.75 6.75H12.875L12.875 2.5L10.75 2.5L2.25 2.5Z" fill="#2EFFD9"/>
</svg>
