<svg width="223" height="222" viewBox="0 0 223 222" fill="none" xmlns="http://www.w3.org/2000/svg">
<g clip-path="url(#clip0_65_10535)">
<path fill-rule="evenodd" clip-rule="evenodd" d="M93.4328 42.7661L54.6397 20.6123L16.1104 43.2285L54.9035 66.3732L93.4328 42.7661Z" fill="#00856D"/>
<path fill-rule="evenodd" clip-rule="evenodd" d="M158.799 94.0323L145.634 89.1875L134.512 113.015L54.7719 156.684L92.9277 135.785L93.3013 43.5146L54.7719 67.1218L45.0791 138.406L0 165.316L95.6531 221.978L188.493 167.893L171.217 157.609L223 130.963L184.075 112.376L158.777 94.0323H158.799Z" fill="#00856D"/>
<path fill-rule="evenodd" clip-rule="evenodd" d="M95.6526 209.668L18.3302 165.272L18.0664 26.4038L56.8595 49.5485V139.133L95.0153 162.475L95.6526 209.668Z" fill="#2EFFD9"/>
<path fill-rule="evenodd" clip-rule="evenodd" d="M21.3637 163.511L92.532 204.361L91.9825 164.193L55.2555 141.731C54.3543 141.181 53.8048 140.19 53.8048 139.133V51.2885L21.0999 31.7774L21.3637 163.511ZM95.6531 212.729C95.1256 212.729 94.62 212.597 94.1365 212.333L16.814 167.915C15.8689 167.365 15.2974 166.374 15.2755 165.272L15.0117 26.4041C15.0117 25.303 15.6052 24.29 16.5503 23.7395C17.4954 23.1889 18.6603 23.2109 19.6054 23.7615L58.3985 46.9062C59.3216 47.4568 59.8931 48.4477 59.8931 49.5268V137.393L96.5982 159.833C97.4993 160.384 98.0488 161.353 98.0488 162.41L98.6862 209.602C98.6862 210.703 98.1367 211.716 97.1916 212.267C96.7081 212.553 96.1806 212.685 95.6531 212.685V212.729Z" fill="#002B2E"/>
<path fill-rule="evenodd" clip-rule="evenodd" d="M18.1982 25.6772L56.9914 48.822L95.5207 25.2148L56.7056 3.06104L18.1982 25.6772Z" fill="#00856D"/>
<path fill-rule="evenodd" clip-rule="evenodd" d="M24.177 25.6991L56.9698 45.2543L89.5428 25.3027L56.728 6.58433L24.155 25.7211L24.177 25.6991ZM56.9918 51.8608C56.4643 51.8608 55.9148 51.7287 55.4313 51.4424L16.6381 28.3197C15.715 27.7691 15.1436 26.7561 15.1436 25.6771C15.1436 24.598 15.715 23.6071 16.6381 23.0565L55.1675 0.418277C56.1126 -0.132264 57.2555 -0.132264 58.2006 0.418277L96.9937 22.572C97.9389 23.1006 98.5103 24.0915 98.5323 25.1706C98.5323 26.2496 98.0048 27.2626 97.0817 27.8132L58.5523 51.4204C58.0687 51.7287 57.5193 51.8608 56.9698 51.8608H56.9918Z" fill="#002B2E"/>
<path fill-rule="evenodd" clip-rule="evenodd" d="M173.789 118.19L136.578 95.4639V50.6499L173.789 72.5394V118.19Z" fill="#2EFFD9"/>
<path fill-rule="evenodd" clip-rule="evenodd" d="M139.634 93.7241L170.778 112.751V74.279L139.634 55.9791V93.7461V93.7241ZM173.811 121.229C173.262 121.229 172.712 121.075 172.229 120.789L135.018 98.0624C134.117 97.5118 133.567 96.5209 133.567 95.4638V50.6498C133.567 49.5487 134.139 48.5357 135.106 48.0072C136.051 47.4567 137.216 47.4787 138.161 48.0072L175.372 69.8967C176.295 70.4473 176.866 71.4382 176.866 72.5393V118.19C176.866 119.291 176.273 120.304 175.306 120.855C174.844 121.119 174.339 121.251 173.811 121.251V121.229Z" fill="#002B2E"/>
<path fill-rule="evenodd" clip-rule="evenodd" d="M95.653 209.668L173.811 165.338V118.19L95.0156 162.475L95.653 209.668Z" fill="#00F5C8"/>
<path fill-rule="evenodd" clip-rule="evenodd" d="M98.0711 164.237L98.6206 204.471L170.756 163.555V123.387L98.0711 164.237ZM95.6534 212.707C95.1259 212.707 94.5984 212.575 94.1369 212.311C93.2138 211.782 92.6203 210.791 92.5983 209.712L91.9609 162.52C91.9609 161.397 92.5324 160.362 93.5215 159.811L172.317 115.526C173.262 114.997 174.405 114.997 175.35 115.548C176.273 116.098 176.844 117.089 176.844 118.19V165.338C176.844 166.44 176.251 167.453 175.306 168.003L97.148 212.333C96.6864 212.597 96.1589 212.729 95.6534 212.729V212.707Z" fill="#002B2E"/>
<path fill-rule="evenodd" clip-rule="evenodd" d="M136.578 50.6278L178.097 26.9546L216.78 47.5668L173.811 72.5173L136.6 50.6278H136.578Z" fill="#00856D"/>
<path fill-rule="evenodd" clip-rule="evenodd" d="M142.667 50.672L173.811 68.9939L210.516 47.699L178.163 30.4561L142.689 50.694L142.667 50.672ZM173.789 75.5784C173.262 75.5784 172.734 75.4463 172.251 75.16L135.04 53.2705C134.095 52.72 133.524 51.707 133.546 50.6059C133.546 49.5048 134.139 48.5138 135.084 47.9633L176.603 24.29C177.504 23.7835 178.603 23.7615 179.526 24.246L218.209 44.8582C219.176 45.3868 219.814 46.3998 219.814 47.5008C219.814 48.6019 219.242 49.6369 218.297 50.1875L175.328 75.138C174.866 75.4022 174.339 75.5564 173.811 75.5564L173.789 75.5784Z" fill="#002B2E"/>
<path fill-rule="evenodd" clip-rule="evenodd" d="M216.78 47.5669L173.811 72.5174V118.168L216.78 93.9665V47.5669Z" fill="#00F5C8"/>
<path fill-rule="evenodd" clip-rule="evenodd" d="M176.844 74.279V112.971L213.747 92.2046V52.8739L176.844 74.301V74.279ZM173.81 121.229C173.283 121.229 172.755 121.097 172.272 120.811C171.349 120.26 170.777 119.269 170.777 118.168V72.5172C170.777 71.4382 171.349 70.4252 172.294 69.8746L215.263 44.9241C216.208 44.3736 217.373 44.3736 218.296 44.9241C219.241 45.4747 219.813 46.4877 219.813 47.5667V93.9663C219.813 95.0674 219.219 96.0804 218.252 96.6309L175.283 120.833C174.822 121.097 174.316 121.229 173.788 121.229H173.81Z" fill="#002B2E"/>
<path fill-rule="evenodd" clip-rule="evenodd" d="M56.8604 139.111V49.5486L95.3897 25.9414L95.0161 118.212L56.8604 139.111Z" fill="#00F5C8"/>
<path fill-rule="evenodd" clip-rule="evenodd" d="M59.8929 51.2664V133.98L91.9824 116.406L92.3121 31.3809L59.8929 51.2444V51.2664ZM56.8598 142.172C56.3323 142.172 55.7828 142.04 55.2993 141.753C54.3761 141.203 53.8047 140.212 53.8047 139.133V49.5487C53.8047 48.4917 54.3542 47.5007 55.2553 46.9501L93.7847 23.343C94.7298 22.7704 95.8947 22.7484 96.8618 23.2989C97.8288 23.8495 98.4223 24.8625 98.4223 25.9635L98.0486 118.256C98.0486 119.357 97.4332 120.392 96.4661 120.921L58.3104 141.819C57.8488 142.062 57.3653 142.194 56.8598 142.194V142.172Z" fill="#002B2E"/>
<path fill-rule="evenodd" clip-rule="evenodd" d="M56.8604 139.111L136.601 95.4419L173.811 118.168L95.0161 162.454L56.8604 139.111Z" fill="#00856D"/>
<path fill-rule="evenodd" clip-rule="evenodd" d="M62.9259 139.265L95.0814 158.93L167.766 118.08L136.49 98.9871L62.9259 139.287V139.265ZM95.0154 165.514C94.466 165.514 93.9165 165.36 93.4329 165.074L55.2772 141.731C54.3541 141.158 53.7826 140.145 53.8266 139.044C53.8486 137.965 54.464 136.952 55.4091 136.446L135.149 92.777C136.094 92.2484 137.259 92.2925 138.182 92.843L175.393 115.569C176.316 116.142 176.866 117.155 176.844 118.234C176.844 119.313 176.228 120.304 175.283 120.833L96.488 165.118C96.0265 165.382 95.521 165.514 94.9935 165.514H95.0154Z" fill="#002B2E"/>
</g>
<defs>
<clipPath id="clip0_65_10535">
<rect width="223" height="222" fill="white"/>
</clipPath>
</defs>
</svg>
