<svg width="61" height="61" viewBox="0 0 61 61" fill="none" xmlns="http://www.w3.org/2000/svg">
<g clip-path="url(#clip0_65_10578)">
<path fill-rule="evenodd" clip-rule="evenodd" d="M40.96 18.6401L49.76 22.4001L60.64 27.4501L39.88 60.0901L24.37 51.1201L34.5 39.5301L14.16 44.8701L0 37.0301L11.33 31.8101L40.95 18.6501L40.96 18.6401Z" fill="#00856D"/>
<path fill-rule="evenodd" clip-rule="evenodd" d="M29.6896 50.44L35.4196 34.26L26.1096 30.09L8.85961 27.53L47.6296 4.74002L55.3896 4.27002V28.55L38.3096 55.42L29.6896 50.43V50.44ZM29.6896 37.38L14.1596 41.46L5.59961 36.51" fill="#00F5C8"/>
<path fill-rule="evenodd" clip-rule="evenodd" d="M14.1504 42.8402C13.9104 42.8402 13.6704 42.7802 13.4604 42.6502L4.90043 37.7002C4.24043 37.3202 4.01043 36.4702 4.39043 35.8102C4.77043 35.1502 5.62043 34.9202 6.28043 35.3002L14.3504 39.9702L29.3304 36.0402C30.0704 35.8502 30.8204 36.2902 31.0204 37.0302C31.2104 37.7702 30.7704 38.5302 30.0304 38.7202L14.5004 42.8002C14.3804 42.8302 14.2704 42.8502 14.1504 42.8502V42.8402ZM31.3704 49.8102L37.8504 53.5602L54.0004 28.1502V5.74019L48.0404 6.10019L12.9404 26.7302L26.3104 28.7102C26.4304 28.7302 26.5604 28.7602 26.6704 28.8202L35.9804 32.9902C36.6404 33.2802 36.9604 34.0402 36.7204 34.7202L31.3704 49.8202V49.8102ZM38.3004 56.8102C38.0604 56.8102 37.8304 56.7502 37.6104 56.6202L28.9904 51.6302C28.4104 51.3002 28.1504 50.6002 28.3804 49.9702L33.6804 34.9902L25.7104 31.4202L8.65042 28.8902C8.07043 28.8002 7.61042 28.3602 7.49043 27.7802C7.38043 27.2002 7.64042 26.6202 8.15042 26.3202L46.9304 3.55019C47.1204 3.44019 47.3304 3.38019 47.5504 3.36019L55.3104 2.89019C55.6904 2.87019 56.0604 3.00019 56.3404 3.26019C56.6204 3.52019 56.7704 3.89019 56.7704 4.27019V28.5502C56.7704 28.8102 56.6904 29.0702 56.5504 29.2902L39.4704 56.1602C39.2104 56.5702 38.7604 56.8002 38.3004 56.8002V56.8102Z" fill="#002B2E"/>
<path fill-rule="evenodd" clip-rule="evenodd" d="M5.58984 12.2202V36.5002L14.1498 41.4502V17.1702L5.58984 12.2202Z" fill="#00F5C8"/>
<path fill-rule="evenodd" clip-rule="evenodd" d="M6.96996 35.7L12.77 39.05V17.97L6.96996 14.62V35.7ZM14.15 42.84C13.91 42.84 13.67 42.78 13.46 42.65L4.89996 37.7C4.46996 37.45 4.20996 36.99 4.20996 36.5V12.22C4.20996 11.72 4.46996 11.27 4.89996 11.02C5.32996 10.77 5.85996 10.77 6.27996 11.02L14.84 15.97C15.27 16.22 15.53 16.67 15.53 17.17V41.45C15.53 41.95 15.27 42.4 14.84 42.65C14.63 42.77 14.39 42.84 14.15 42.84Z" fill="#002B2E"/>
<path fill-rule="evenodd" clip-rule="evenodd" d="M29.6904 26.1499V50.4299L38.3104 55.4199V31.1399L29.6904 26.1499Z" fill="#00F5C8"/>
<path fill-rule="evenodd" clip-rule="evenodd" d="M31.0696 49.6402L36.9196 53.0302V31.9502L31.0696 28.5602V49.6402ZM38.3096 56.8102C38.0696 56.8102 37.8296 56.7502 37.6196 56.6202L28.9996 51.6302C28.5696 51.3802 28.3096 50.9302 28.3096 50.4302V26.1502C28.3096 25.6502 28.5696 25.2002 28.9996 24.9502C29.4296 24.7002 29.9596 24.7002 30.3796 24.9502L38.9996 29.9402C39.4296 30.1902 39.6896 30.6402 39.6896 31.1402V55.4202C39.6896 55.9202 39.4296 56.3702 38.9996 56.6202C38.7896 56.7402 38.5496 56.8102 38.3096 56.8102Z" fill="#002B2E"/>
<path fill-rule="evenodd" clip-rule="evenodd" d="M5.58984 12.2201L50.3998 1.39014L55.3898 4.28014L38.3098 31.1501L29.6898 26.1601L40.9598 10.1401L14.1598 17.1801L5.59984 12.2301L5.58984 12.2201Z" fill="#00856D"/>
<path fill-rule="evenodd" clip-rule="evenodd" d="M31.6897 25.7099L37.8497 29.2699L53.4497 4.73985L50.1897 2.84985L9.27973 12.7499L14.3497 15.6799L40.5997 8.78985C41.1597 8.63985 41.7597 8.85985 42.0897 9.33985C42.4197 9.81985 42.4197 10.4499 42.0897 10.9299L31.6897 25.7099ZM38.3097 32.5199C38.0697 32.5199 37.8397 32.4599 37.6197 32.3299L28.9997 27.3399C28.6597 27.1499 28.4197 26.8199 28.3397 26.4399C28.2597 26.0599 28.3397 25.6599 28.5597 25.3399L37.6497 12.4199L14.5097 18.4899C14.1597 18.5799 13.7797 18.5299 13.4697 18.3499L4.90973 13.3999C4.41973 13.1199 4.14974 12.5599 4.22974 11.9999C4.30974 11.4399 4.71974 10.9799 5.27974 10.8499L50.0797 0.0398528C50.4197 -0.0401472 50.7897 0.00985275 51.0997 0.189853L56.0897 3.07985C56.4197 3.26985 56.6497 3.57985 56.7397 3.94985C56.8297 4.31985 56.7697 4.70985 56.5597 5.01985L39.4797 31.8899C39.2197 32.2999 38.7697 32.5299 38.3097 32.5299V32.5199Z" fill="#002B2E"/>
<path fill-rule="evenodd" clip-rule="evenodd" d="M29.6902 37.3801V26.1601L40.9602 10.1401L14.1602 17.1801V41.4601L29.6902 37.3801Z" fill="#00BD9A"/>
<path fill-rule="evenodd" clip-rule="evenodd" d="M15.5395 18.2402V39.6602L28.3095 36.3102V26.1602C28.3095 25.8702 28.3995 25.6002 28.5595 25.3602L37.6495 12.4402L15.5395 18.2402ZM14.1595 42.8402C13.8595 42.8402 13.5595 42.7402 13.3095 42.5502C12.9695 42.2902 12.7695 41.8802 12.7695 41.4502V17.1702C12.7695 16.5402 13.1995 15.9902 13.7995 15.8302L40.5995 8.79022C41.1595 8.64022 41.7595 8.86022 42.0895 9.34022C42.4195 9.82022 42.4195 10.4502 42.0895 10.9302L31.0695 26.5902V37.3702C31.0695 38.0002 30.6495 38.5502 30.0395 38.7102L14.5095 42.7902C14.3895 42.8202 14.2795 42.8402 14.1595 42.8402Z" fill="#002B2E"/>
</g>
<defs>
<clipPath id="clip0_65_10578">
<rect width="60.64" height="60.09" fill="white"/>
</clipPath>
</defs>
</svg>
