<svg width="108" height="90" viewBox="0 0 108 90" fill="none" xmlns="http://www.w3.org/2000/svg">
<g clip-path="url(#clip0_65_10616)">
<path fill-rule="evenodd" clip-rule="evenodd" d="M70.2907 7.48795L54.3754 33.9778L0 67.8098L39.2661 90.0001L108 51.1215L80.9313 34.8341L70.2907 7.46973V7.48795Z" fill="#00856D"/>
<path fill-rule="evenodd" clip-rule="evenodd" d="M12.4539 34.8521L69.6497 2.53223L96.2972 18.6921L40.2734 50.1739L12.4355 34.8521H12.4539Z" fill="#00856D"/>
<path fill-rule="evenodd" clip-rule="evenodd" d="M17.6369 34.8159L40.2735 47.2775L91.2974 18.6014L69.6131 5.44751L17.6369 34.8159ZM40.2735 52.6884C39.8522 52.6884 39.431 52.5791 39.0464 52.3787L11.2085 37.0568C10.4027 36.6196 9.9082 35.7815 9.9082 34.8524C9.9082 33.9414 10.4027 33.0852 11.1902 32.6479L68.4044 0.328072C69.2102 -0.127393 70.1809 -0.109174 70.9684 0.36451L97.6158 16.5244C98.385 16.9981 98.8429 17.8179 98.8246 18.7289C98.8063 19.6398 98.3118 20.4414 97.5426 20.8787L41.5189 52.3605C41.1342 52.5791 40.6947 52.6884 40.2735 52.6884Z" fill="#002B2E"/>
<path fill-rule="evenodd" clip-rule="evenodd" d="M40.2916 50.1742L39.8887 81.6924L96.3153 49.7916V18.6924L40.2916 50.1742Z" fill="#00F5C8"/>
<path fill-rule="evenodd" clip-rule="evenodd" d="M42.8012 51.65L42.4716 77.3201L93.7702 48.316V23.0104L42.8012 51.65ZM39.8892 84.2067C39.4497 84.2067 38.9918 84.0792 38.6072 83.8606C37.8197 83.4051 37.3435 82.567 37.3618 81.6561L37.7648 50.1379C37.7648 49.2452 38.2592 48.4071 39.0468 47.9699L95.0705 16.4881C95.858 16.0508 96.8104 16.0508 97.5979 16.4881C98.3671 16.9436 98.8616 17.7816 98.8616 18.6743V49.7735C98.8616 50.6844 98.3671 51.5225 97.5796 51.9598L41.1529 83.8606C40.7683 84.0792 40.3288 84.1885 39.9075 84.1885L39.8892 84.2067Z" fill="#002B2E"/>
<path fill-rule="evenodd" clip-rule="evenodd" d="M12.4541 34.8521V66.1881L39.8891 81.6921L40.292 50.1739L12.4541 34.8521Z" fill="#00BD9A"/>
<path fill-rule="evenodd" clip-rule="evenodd" d="M14.9813 64.7124L37.3981 77.3925L37.7278 51.6496L14.9813 39.1334V64.7124ZM39.8706 84.2063C39.431 84.2063 39.0098 84.097 38.6252 83.8783L11.1902 68.3743C10.4027 67.9188 9.9082 67.0808 9.9082 66.1698V34.8338C9.9082 33.9411 10.3844 33.1213 11.1536 32.6658C11.9228 32.2103 12.8751 32.1921 13.6627 32.6294L41.5005 47.9512C42.3247 48.4067 42.8192 49.263 42.8009 50.1921L42.3979 81.7103C42.3979 82.603 41.9035 83.4229 41.1159 83.8601C40.7313 84.0787 40.2918 84.1881 39.8522 84.1881L39.8706 84.2063Z" fill="#002B2E"/>
</g>
<defs>
<clipPath id="clip0_65_10616">
<rect width="108" height="90" fill="white"/>
</clipPath>
</defs>
</svg>
