<svg width="94" height="73" viewBox="0 0 94 73" fill="none" xmlns="http://www.w3.org/2000/svg">
<g clip-path="url(#clip0_65_10554)">
<path fill-rule="evenodd" clip-rule="evenodd" d="M7.13 37.2L0 41.24L16.34 51.77L11.65 54.83L27.46 64.18L32.96 61.17L50.14 72.26L68.45 62.01L54.18 51.76L62.63 47.24L78.19 55.89L93.7 47.24L37.56 16.29L7.13 37.2Z" fill="#00856D"/>
<path fill-rule="evenodd" clip-rule="evenodd" d="M64.6396 9.29003L60.9896 11.4L44.1096 1.64003C43.4896 1.28003 42.4396 1.31003 41.7696 1.69003L34.4596 5.92003C33.7896 6.31003 33.7496 6.92003 34.3696 7.28003L51.2496 17.04L34.1996 26.9L17.3196 17.14C16.6996 16.78 15.6496 16.81 14.9796 17.19L7.66963 21.42C6.99963 21.81 6.95963 22.41 7.57963 22.77L24.4596 32.53L20.8096 34.64C20.1396 35.03 20.0996 35.64 20.7196 36L27.4696 39.9C28.0896 40.26 29.1396 40.24 29.8096 39.85L33.4596 37.74L50.3396 47.5C50.9596 47.86 52.0096 47.84 52.6796 47.45L59.9896 43.22C60.6596 42.83 60.6996 42.22 60.0796 41.87L43.1996 32.11L60.2496 22.25L77.1296 32.01C77.7496 32.37 78.7996 32.35 79.4696 31.96L86.7796 27.73C87.4496 27.34 87.4896 26.73 86.8696 26.38L69.9896 16.62L73.6396 14.51C74.3096 14.12 74.3496 13.51 73.7296 13.16L66.9796 9.26003C66.3596 8.90003 65.3096 8.93003 64.6396 9.31003V9.29003Z" fill="#00856D"/>
<path fill-rule="evenodd" clip-rule="evenodd" d="M33.45 36.35C33.69 36.35 33.93 36.41 34.14 36.54L51.02 46.3C51.18 46.39 51.71 46.4 51.98 46.24L58.43 42.51L42.5 33.3C42.07 33.05 41.81 32.59 41.81 32.1C41.81 31.61 42.07 31.15 42.5 30.9L59.55 21.04C59.98 20.79 60.51 20.79 60.93 21.04L77.81 30.8C77.97 30.89 78.5 30.9 78.77 30.75L85.22 27.02L69.29 17.81C68.86 17.56 68.6 17.1 68.6 16.61C68.6 16.12 68.86 15.66 69.29 15.41L72.09 13.79L66.29 10.43C66.13 10.34 65.6 10.33 65.33 10.48L61.68 12.59C61.25 12.84 60.72 12.84 60.3 12.59L43.42 2.83998C43.26 2.74998 42.73 2.73998 42.46 2.88998L36.01 6.61998L51.94 15.83C52.37 16.08 52.63 16.54 52.63 17.03C52.63 17.52 52.37 17.98 51.94 18.23L34.89 28.09C34.46 28.34 33.94 28.34 33.51 28.09L16.63 18.33C16.47 18.24 15.94 18.23 15.67 18.38L9.22 22.11L25.15 31.32C25.58 31.57 25.84 32.03 25.84 32.52C25.84 33.01 25.58 33.47 25.15 33.72L22.35 35.34L28.15 38.69C28.31 38.78 28.84 38.79 29.11 38.64L32.76 36.53C32.97 36.41 33.21 36.34 33.45 36.34V36.35ZM51.42 49.14C50.78 49.14 50.15 48.99 49.64 48.7L33.45 39.34L30.49 41.05C29.38 41.69 27.82 41.71 26.76 41.1L20.01 37.2C19.29 36.78 18.88 36.12 18.88 35.37C18.88 34.62 19.33 33.89 20.1 33.44L21.68 32.53L6.88 23.97C6.16 23.55 5.75 22.89 5.75 22.14C5.75 21.39 6.2 20.66 6.97 20.21L14.28 15.98C15.39 15.34 16.95 15.32 18.01 15.93L34.2 25.29L48.49 17.03L33.69 8.46998C32.97 8.04998 32.56 7.38998 32.56 6.63998C32.56 5.86998 33.01 5.15998 33.79 4.70998L41.08 0.499977C42.19 -0.140023 43.75 -0.160023 44.81 0.449977L61 9.80998L63.96 8.09998C65.07 7.45998 66.63 7.43998 67.69 8.04998L74.44 11.95C75.16 12.37 75.57 13.03 75.57 13.78C75.57 14.53 75.12 15.26 74.35 15.71L72.77 16.62L87.57 25.18C88.29 25.6 88.7 26.26 88.7 27.01C88.7 27.78 88.25 28.49 87.47 28.94L80.16 33.17C79.06 33.81 77.49 33.83 76.43 33.22L60.24 23.86L45.95 32.12L60.75 40.68C61.47 41.1 61.88 41.76 61.88 42.51C61.88 43.28 61.43 43.99 60.66 44.44L53.35 48.67C52.78 49 52.09 49.17 51.4 49.17L51.42 49.14Z" fill="#002B2E"/>
<path fill-rule="evenodd" clip-rule="evenodd" d="M7.12988 22.0498V41.1198L20.0299 49.0598V35.6098L24.4499 32.5298L7.12988 22.0498Z" fill="#00BD9A"/>
<path fill-rule="evenodd" clip-rule="evenodd" d="M8.51023 40.3501L18.6402 46.5801V35.6101C18.6402 35.1501 18.8602 34.7301 19.2402 34.4701L21.9102 32.6101L8.52024 24.5001V40.3401L8.51023 40.3501ZM20.0202 50.4501C19.7702 50.4501 19.5202 50.3801 19.3002 50.2401L6.40023 42.3001C5.99023 42.0501 5.74023 41.6001 5.74023 41.1201V22.0501C5.74023 21.5501 6.01023 21.0901 6.44023 20.8401C6.88023 20.5901 7.41023 20.6001 7.84023 20.8601L25.1602 31.3401C25.5602 31.5801 25.8102 32.0101 25.8302 32.4801C25.8402 32.9501 25.6202 33.3901 25.2402 33.6601L21.4102 36.3201V49.0501C21.4102 49.5501 21.1402 50.0201 20.7002 50.2601C20.4902 50.3801 20.2602 50.4401 20.0302 50.4401L20.0202 50.4501Z" fill="#002B2E"/>
<path fill-rule="evenodd" clip-rule="evenodd" d="M20.0195 35.6099L27.4495 39.8999V58.9099L20.0195 54.6199V35.6099Z" fill="#00F5C8"/>
<path fill-rule="evenodd" clip-rule="evenodd" d="M21.4096 53.8199L26.0696 56.5099V40.7099L21.4096 38.0099V53.8199ZM27.4496 60.2999C27.2097 60.2999 26.9696 60.2399 26.7596 60.1099L19.3296 55.8099C18.8996 55.5599 18.6396 55.1099 18.6396 54.6099V35.5999C18.6396 35.0999 18.8996 34.6499 19.3296 34.3999C19.7596 34.1499 20.2896 34.1499 20.7096 34.3999L28.1396 38.6899C28.5696 38.9399 28.8296 39.3999 28.8296 39.8899V58.8999C28.8296 59.3999 28.5696 59.8499 28.1396 60.0999C27.9296 60.2199 27.6896 60.2899 27.4496 60.2899V60.2999Z" fill="#002B2E"/>
<path fill-rule="evenodd" clip-rule="evenodd" d="M33.4502 37.7402V56.0602L27.4502 58.9202V40.6902L33.4502 37.7502V37.7402Z" fill="#00BD9A"/>
<path fill-rule="evenodd" clip-rule="evenodd" d="M28.8303 41.5399V56.7099L32.0603 55.1699V39.9499L28.8303 41.5299V41.5399ZM27.4503 60.2899C27.1903 60.2899 26.9403 60.2199 26.7103 60.0799C26.3103 59.8299 26.0703 59.3799 26.0703 58.9099V40.6799C26.0703 40.1499 26.3703 39.6699 26.8503 39.4399L32.8503 36.4999C33.2803 36.2899 33.7803 36.3199 34.1903 36.5699C34.6003 36.8199 34.8403 37.2699 34.8403 37.7499V56.0699C34.8403 56.5999 34.5303 57.0899 34.0503 57.3199L28.0503 60.1799C27.8603 60.2699 27.6603 60.3099 27.4603 60.3099L27.4503 60.2899Z" fill="#002B2E"/>
<path fill-rule="evenodd" clip-rule="evenodd" d="M33.4502 37.7402L51.3402 48.0902V67.1002L33.4502 56.7502V37.7402Z" fill="#00F5C8"/>
<path fill-rule="evenodd" clip-rule="evenodd" d="M34.8303 55.9398L49.9603 64.6898V48.8798L34.8303 40.1298V55.9398ZM51.3403 68.4698C51.1003 68.4698 50.8603 68.4098 50.6503 68.2898L32.7603 57.9398C32.3303 57.6898 32.0703 57.2298 32.0703 56.7398V37.7298C32.0703 37.2298 32.3303 36.7798 32.7603 36.5298C33.1903 36.2798 33.7103 36.2798 34.1403 36.5298L52.0303 46.8798C52.4603 47.1298 52.7203 47.5898 52.7203 48.0798V67.0898C52.7203 67.5898 52.4603 68.0398 52.0303 68.2898C51.8203 68.4098 51.5803 68.4698 51.3403 68.4698Z" fill="#002B2E"/>
<path fill-rule="evenodd" clip-rule="evenodd" d="M60.7698 42.5801V61.7701L51.3398 67.0901V48.0801L60.7698 42.5801Z" fill="#00F5C8"/>
<path fill-rule="evenodd" clip-rule="evenodd" d="M52.7297 48.8799V64.7199L59.3897 60.9599V44.9899L52.7297 48.8799ZM51.3497 68.4799C51.1097 68.4799 50.8697 68.4199 50.6497 68.2899C50.2297 68.0399 49.9697 67.5899 49.9697 67.0899V48.0799C49.9697 47.5899 50.2297 47.1299 50.6597 46.8799L60.0897 41.3799C60.5197 41.1299 61.0497 41.1299 61.4797 41.3799C61.9097 41.6299 62.1697 42.0899 62.1697 42.5799V61.7699C62.1697 62.2699 61.8997 62.7299 61.4597 62.9799L52.0297 68.2999C51.8197 68.4199 51.5897 68.4799 51.3497 68.4799Z" fill="#002B2E"/>
<path fill-rule="evenodd" clip-rule="evenodd" d="M43.1904 32.1L58.9604 41.22L60.2404 41.24L78.2704 51.25L78.1704 31.38L60.2404 21.5L43.1904 32.09V32.1Z" fill="#00BD9A"/>
<path fill-rule="evenodd" clip-rule="evenodd" d="M59.3503 39.84L60.2703 39.86C60.5003 39.86 60.7203 39.93 60.9103 40.03L76.8803 48.9L76.8003 32.21L60.2903 23.11L45.8903 32.06L59.3503 39.84ZM78.2803 52.64C78.0503 52.64 77.8203 52.58 77.6103 52.47L59.8803 42.62L58.9403 42.6C58.7103 42.6 58.4803 42.53 58.2803 42.41L42.5103 33.29C42.0903 33.05 41.8303 32.6 41.8203 32.11C41.8203 31.62 42.0603 31.17 42.4703 30.91L59.5203 20.32C59.9403 20.06 60.4803 20.04 60.9203 20.28L78.8503 30.16C79.2903 30.4 79.5603 30.86 79.5703 31.37L79.6703 51.24C79.6703 51.73 79.4103 52.19 78.9903 52.44C78.7703 52.57 78.5303 52.63 78.2803 52.63V52.64Z" fill="#002B2E"/>
<path fill-rule="evenodd" clip-rule="evenodd" d="M60.2501 42.6298C59.4801 42.6298 58.8701 42.0098 58.8701 41.2398V22.2298C58.8701 21.4698 59.4901 20.8398 60.2501 20.8398C61.0101 20.8398 61.6301 21.4598 61.6301 22.2298V41.2398C61.6301 42.0098 61.0101 42.6298 60.2501 42.6298Z" fill="#002B2E"/>
<path fill-rule="evenodd" clip-rule="evenodd" d="M78.1799 31.3899L87.2999 26.9199V46.4399L78.2699 51.2599L78.1699 31.3899H78.1799Z" fill="#00F5C8"/>
<path fill-rule="evenodd" clip-rule="evenodd" d="M79.57 32.2601L79.65 48.9601L85.93 45.6101V29.1401L79.57 32.2601ZM78.28 52.6501C78.03 52.6501 77.79 52.5801 77.57 52.4501C77.15 52.2001 76.9 51.7501 76.89 51.2701L76.79 31.4001C76.79 30.8701 77.09 30.3801 77.57 30.1501L86.69 25.6801C87.12 25.4701 87.63 25.5001 88.03 25.7501C88.43 26.0001 88.68 26.4501 88.68 26.9301V46.4601C88.68 46.9701 88.4 47.4401 87.95 47.6801L78.92 52.5001C78.72 52.6101 78.49 52.6601 78.27 52.6601L78.28 52.6501Z" fill="#002B2E"/>
<path fill-rule="evenodd" clip-rule="evenodd" d="M74.1502 13.6001V19.0101L69.9902 16.6001L74.1502 13.6001Z" fill="#00BD9A"/>
<path fill-rule="evenodd" clip-rule="evenodd" d="M72.5404 16.4799L72.7704 16.6199V16.3199L72.5404 16.4899V16.4799ZM74.1605 20.3999C73.9205 20.3999 73.6804 20.3399 73.4704 20.2099L69.3104 17.7999C68.9004 17.5599 68.6404 17.1399 68.6204 16.6699C68.6004 16.1999 68.8104 15.7499 69.1904 15.4799L73.3504 12.4699C73.7704 12.1699 74.3304 12.1199 74.7904 12.3599C75.2504 12.5999 75.5404 13.0699 75.5404 13.5899V18.9999C75.5404 19.4899 75.2804 19.9499 74.8504 20.1999C74.6404 20.3199 74.4005 20.3899 74.1605 20.3899V20.3999Z" fill="#002B2E"/>
<path fill-rule="evenodd" clip-rule="evenodd" d="M34.1897 26.9001L33.9297 6.58008L51.2397 17.0401L34.1897 26.9001Z" fill="#00BD9A"/>
<path fill-rule="evenodd" clip-rule="evenodd" d="M35.3498 9.05008L35.5498 24.5101L48.5298 17.0101L35.3598 9.05008H35.3498ZM34.1898 28.2801C33.9498 28.2801 33.7198 28.2201 33.5098 28.1001C33.0798 27.8601 32.8198 27.4001 32.8098 26.9101L32.5498 6.59008C32.5498 6.09008 32.8098 5.62007 33.2498 5.37007C33.6898 5.12007 34.2198 5.13008 34.6498 5.38008L51.9598 15.8401C52.3798 16.0901 52.6298 16.5501 52.6298 17.0401C52.6298 17.5301 52.3598 17.9801 51.9398 18.2301L34.8898 28.0901C34.6798 28.2101 34.4398 28.2801 34.1998 28.2801H34.1898Z" fill="#002B2E"/>
</g>
<defs>
<clipPath id="clip0_65_10554">
<rect width="93.69" height="72.27" fill="white"/>
</clipPath>
</defs>
</svg>
