<svg width="89" height="86" viewBox="0 0 89 86" fill="none" xmlns="http://www.w3.org/2000/svg">
<g clip-path="url(#clip0_65_10624)">
<path fill-rule="evenodd" clip-rule="evenodd" d="M50.3627 61.8096L59.2111 71.2805C62.4045 74.6914 62.2382 80.1719 58.629 83.1523C58.4793 83.2682 58.3296 83.4006 58.1633 83.5165C57.7807 83.798 57.3815 84.0464 56.9823 84.2451C54.3212 85.5531 51.3939 86.1326 48.1838 86.0002C44.9904 85.8677 41.7471 84.9902 38.4871 83.4006C35.3602 81.8608 34.4288 80.9336 32.8986 79.1453C32.8986 79.1453 20.0584 63.7468 50.346 61.8261L50.3627 61.8096Z" fill="#00856D"/>
<path fill-rule="evenodd" clip-rule="evenodd" d="M77.9066 46.2949L86.755 55.7659C89.9485 59.1767 89.7655 64.6573 86.1729 67.6376C86.0232 67.7535 85.8735 67.886 85.7072 68.0019C85.308 68.2834 84.9255 68.5317 84.5263 68.7304C81.8651 70.0385 78.9378 70.618 75.7278 70.4855C72.5343 70.3531 69.291 69.4755 66.0311 67.886C62.9042 66.3461 61.9728 65.4355 60.4426 63.6307C60.4426 63.6307 47.6024 48.2322 77.89 46.3115L77.9066 46.2949Z" fill="#00856D"/>
<path fill-rule="evenodd" clip-rule="evenodd" d="M17.8968 73.1345C16.6328 73.1345 15.6016 72.108 15.6016 70.833V45.947C15.6016 44.6721 16.6328 43.6455 17.8968 43.6455C19.1609 43.6455 20.1921 44.6721 20.1921 45.947V70.833C20.1921 72.108 19.1609 73.1345 17.8968 73.1345Z" fill="#002B2E"/>
<path fill-rule="evenodd" clip-rule="evenodd" d="M10.3615 39.9204C10.7274 35.6983 11.0601 35.0194 14.7525 30.8469C18.4449 26.6744 23.5677 22.684 30.1375 18.9089C36.7073 15.1338 43.5598 12.2196 50.7284 10.1499C57.8969 8.0968 65.0655 6.98744 72.2341 6.85498L71.3526 20.1673L84.093 35.5492L65.5645 41.9901C64.6996 42.2385 63.8181 42.4869 62.9532 42.7518C57.6974 44.3579 51.1775 46.9574 46.4871 49.2755L39.4516 53.5142C35.2769 56.2793 30.9691 59.7067 28.0917 62.7864C24.9315 66.1807 22.3202 72.1746 20.973 76.5789C20.5905 77.8538 19.1102 78.4665 17.9459 77.8042L1.23034 68.4326C0.0660723 67.7703 -0.349738 66.2966 0.315558 65.1376L7.20137 53.1003L10.3615 39.9039V39.9204Z" fill="#00856D"/>
<path fill-rule="evenodd" clip-rule="evenodd" d="M5.60547 38.8936L63.7191 6.01025L81.3827 9.32177L81.0501 30.9956L62.5216 37.4365C61.6567 37.6849 60.7752 37.9332 59.8936 38.1982C54.6378 39.8042 48.1179 42.4038 43.4276 44.7218L36.3921 48.9606C32.2173 51.7257 27.9095 55.1531 25.0321 58.2328C21.2067 62.3391 18.8282 66.5447 17.8802 70.8497L5.60547 63.7796L5.63873 39.2744" fill="#2EFFD9"/>
<path fill-rule="evenodd" clip-rule="evenodd" d="M7.91661 62.4551L16.4989 67.3892C17.8295 63.73 20.1248 60.137 23.3515 56.6599C26.179 53.6299 30.4702 50.1197 35.1272 47.04C35.1605 47.0234 35.1771 47.0069 35.2104 46.9903L42.2459 42.7516C42.2459 42.7516 42.3623 42.6853 42.4122 42.6688C47.3021 40.2514 53.8886 37.6353 59.2276 36.0126C60.0925 35.7477 60.9574 35.4993 61.8389 35.251L78.7707 29.3565L79.0534 11.226L64.1175 8.42773L7.94987 40.2017L7.91661 62.4385V62.4551ZM17.8961 73.1347C17.4969 73.1347 17.0977 73.0354 16.7484 72.8201L4.4737 65.75C3.75851 65.3361 3.32606 64.5744 3.32606 63.7631L3.35933 39.291C3.193 38.3638 3.62545 37.3869 4.49033 36.9067L62.5707 4.02341C63.0364 3.75849 63.6019 3.65915 64.1341 3.75849L81.7978 7.07001C82.8955 7.2687 83.6938 8.24559 83.6772 9.35495L83.3279 31.0288C83.3279 31.9891 82.6959 32.8501 81.7811 33.1647L63.2526 39.6056C63.2526 39.6056 63.1528 39.6387 63.1029 39.6553C62.2547 39.8871 61.3898 40.1355 60.5415 40.4004C55.5352 41.9237 49.1151 44.4735 44.5079 46.7419L37.5888 50.8979C33.2977 53.7292 29.2227 57.0573 26.678 59.7893C23.1519 63.581 20.9398 67.4555 20.0915 71.3299C19.9418 72.0419 19.4429 72.638 18.7776 72.936C18.4782 73.0685 18.1622 73.1347 17.8462 73.1347H17.8961Z" fill="#002B2E"/>
<path fill-rule="evenodd" clip-rule="evenodd" d="M36.2754 50.1694L57.7478 51.2291V76.1151C57.6813 77.6219 57.016 78.9465 54.9369 80.1386C52.8246 81.3473 50.4961 81.8937 47.9513 81.7778C45.4066 81.6453 42.8452 80.8506 40.2672 79.3604C37.7889 77.9365 36.4583 76.4959 36.2754 75.0554V50.1694ZM63.7355 59.243V34.3569L85.1747 35.3669V60.253C85.158 61.7431 84.526 63.1009 82.4137 64.3096C80.2847 65.5348 77.9562 66.0978 75.4281 65.9653C72.8999 65.8494 70.3219 65.0381 67.7106 63.5314C65.2324 62.1074 63.9018 60.6669 63.7189 59.2264L63.7355 59.243Z" fill="#00F5C8"/>
<path fill-rule="evenodd" clip-rule="evenodd" d="M66.0311 59.0609C66.1143 59.3258 66.5301 60.2199 68.8586 61.5611C71.1373 62.8691 73.3826 63.5811 75.5282 63.697C77.6239 63.7964 79.5034 63.3493 81.2664 62.3393C82.8631 61.4286 82.8631 60.7166 82.8797 60.2365V37.5692L66.0311 36.7744V59.0609ZM76.0937 68.3C75.8276 68.3 75.5781 68.3 75.312 68.2835C72.418 68.151 69.474 67.2238 66.5634 65.5515C63.3866 63.7136 61.7067 61.7598 61.4406 59.5411C61.4406 59.4583 61.4406 59.3589 61.4406 59.2761V34.3901C61.4406 33.7609 61.6901 33.1649 62.1558 32.7344C62.6048 32.3039 63.2202 32.0721 63.8523 32.1052L85.3081 33.1152C86.5389 33.1649 87.5036 34.1749 87.5036 35.4001V60.2861C87.4703 62.8691 86.1896 64.8395 83.5949 66.3297C81.2997 67.6543 78.7882 68.3166 76.127 68.3166L76.0937 68.3ZM38.571 74.8568C38.6542 75.1217 39.07 76.0158 41.3985 77.357C43.6605 78.6485 45.8893 79.3605 48.0515 79.4764C50.1638 79.5923 52.0266 79.1452 53.7564 78.1518C55.3198 77.2577 55.403 76.5457 55.4196 76.0655V53.4148L38.5544 52.5869V74.8568H38.571ZM48.6669 84.0959C48.3841 84.0959 48.118 84.0959 47.8353 84.0794C44.9412 83.9304 41.9973 83.0197 39.1032 81.3474C35.9265 79.5095 34.2466 77.5557 33.9805 75.337C33.9805 75.2542 33.9805 75.1548 33.9805 75.0721V50.186C33.9805 49.5568 34.2466 48.9608 34.6957 48.5303C35.1447 48.0998 35.7601 47.868 36.3922 47.9011L57.8646 48.9608C59.0954 49.027 60.0601 50.037 60.0601 51.2457V76.1317C60.0601 76.1317 60.0601 76.198 60.0601 76.2311C59.9437 78.7313 58.6463 80.6685 56.1016 82.1421C53.8396 83.4502 51.3447 84.0959 48.6835 84.0959H48.6669Z" fill="#002B2E"/>
<path fill-rule="evenodd" clip-rule="evenodd" d="M81.0494 33.2974H81.0161C79.7521 33.2809 78.7375 32.2377 78.7541 30.9628L79.1034 9.28894C79.12 8.03056 80.1512 7.03711 81.3987 7.03711H81.4319C82.696 7.05367 83.7106 8.09679 83.6939 9.37173L83.3447 31.0456C83.328 32.304 82.2968 33.2974 81.0494 33.2974Z" fill="#002B2E"/>
<path fill-rule="evenodd" clip-rule="evenodd" d="M27.0779 14.3552C33.6477 10.5801 40.5003 7.66592 47.6689 5.59623C54.8374 3.54309 62.006 2.43373 69.1746 2.30127L81.3827 9.32168C74.2308 9.80185 67.0622 11.1265 59.8937 13.3121C52.7251 15.4977 46.0888 18.3456 39.9847 21.8558C33.8307 25.3991 28.8576 29.2239 25.0155 33.3302C21.1901 37.4364 18.8116 41.6421 17.8636 45.947L5.58887 38.8769C5.95478 34.6548 7.9673 30.4491 11.6597 26.2766C15.3521 22.1041 20.4749 18.1137 27.0447 14.3386L27.0779 14.3552Z" fill="#00856D"/>
<path fill-rule="evenodd" clip-rule="evenodd" d="M8.10031 37.6686L16.4997 42.5034C17.8303 38.8442 20.1255 35.2512 23.3522 31.7741C27.3274 27.5188 32.5333 23.5119 38.8536 19.8693C45.0741 16.2928 51.9267 13.3456 59.2283 11.1103C64.1681 9.60356 69.1412 8.47764 74.1143 7.76567L68.5924 4.58662C61.8562 4.76875 55.037 5.84499 48.3008 7.78223C41.3485 9.78569 34.5957 12.6502 28.2255 16.3259C21.9052 19.952 16.9321 23.81 13.4227 27.7838C10.512 31.0787 8.7157 34.4068 8.10031 37.6521V37.6686ZM17.8968 48.2489C17.4976 48.2489 17.0984 48.1496 16.7492 47.9343L4.47444 40.8642C3.70935 40.4172 3.26028 39.5728 3.32681 38.6786C3.72598 33.9763 5.97136 29.2905 9.96313 24.7537C13.8052 20.3991 19.1775 16.2266 25.9302 12.3521C32.6165 8.4942 39.7185 5.48073 47.0368 3.37791C54.355 1.29166 61.7897 0.149189 69.1412 0.000170514C69.557 -0.0329446 69.9729 0.0995159 70.3388 0.314764L82.547 7.33517C83.4285 7.84846 83.8609 8.85847 83.6447 9.83537C83.4118 10.8123 82.5636 11.5408 81.549 11.607C74.6133 12.0706 67.5612 13.3787 60.5922 15.5146C53.6232 17.6505 47.0867 20.4488 41.1655 23.8596C35.2444 27.2705 30.3877 30.9794 26.7452 34.9035C23.2192 38.6952 21.0071 42.5697 20.1588 46.4441C20.0091 47.1561 19.5101 47.7522 18.8448 48.0502C18.5455 48.1827 18.2294 48.2489 17.9134 48.2489H17.8968Z" fill="#002B2E"/>
<path fill-rule="evenodd" clip-rule="evenodd" d="M54.9367 55.2693C52.8244 56.478 50.4959 57.0244 47.9511 56.9085C45.4064 56.7761 42.845 55.9648 40.267 54.4911C37.7887 53.0672 36.4581 51.6267 36.2752 50.1862C36.1088 48.7457 37.0735 47.4211 39.1858 46.2124C41.2649 45.0036 43.5934 44.4572 46.1216 44.5566C48.6663 44.6559 51.1445 45.401 53.5895 46.8084C56.1509 48.282 57.5314 49.7557 57.7476 51.2459C57.9638 52.736 57.0158 54.0772 54.9367 55.2693ZM82.4301 39.4403C80.3012 40.6656 77.9726 41.2285 75.4445 41.0961C72.9164 40.9802 70.3383 40.1688 67.7271 38.6621C65.2488 37.2381 63.9182 35.7976 63.7353 34.3571C63.569 32.9166 64.5503 31.592 66.6792 30.3668C68.7749 29.1581 71.0868 28.6282 73.6149 28.7276C76.1597 28.8435 78.6379 29.5886 81.0496 30.9794C83.5278 32.4033 84.9083 33.877 85.1911 35.3671C85.4572 36.8573 84.5424 38.215 82.4301 39.4237V39.4403Z" fill="#00856D"/>
<path fill-rule="evenodd" clip-rule="evenodd" d="M72.9496 31.0287C71.0701 31.0287 69.3736 31.4757 67.8268 32.3699C66.5295 33.1149 65.9806 33.7773 66.0139 34.1084C66.0139 34.2077 66.2135 35.1681 68.858 36.6914C71.1367 37.9994 73.382 38.7114 75.5276 38.8273C77.6233 38.9267 79.5028 38.4796 81.2658 37.4696C82.1141 36.9729 82.9956 36.2774 82.9124 35.8138C82.8625 35.5324 82.4966 34.5058 79.8853 32.999C77.8063 31.8069 75.6607 31.1446 73.5151 31.0453C73.3321 31.0453 73.1492 31.0453 72.9662 31.0453L72.9496 31.0287ZM76.0931 43.4138C75.827 43.4138 75.5775 43.4138 75.3114 43.3972C72.4174 43.2647 69.4734 42.3375 66.5628 40.6652C63.386 38.8273 61.7061 36.8735 61.44 34.6548C61.2404 32.9825 61.7892 30.5485 65.5149 28.396C67.9765 26.9721 70.7375 26.3263 73.7147 26.4588C76.6087 26.5913 79.4695 27.4523 82.1806 29.0087C85.3075 30.8134 87.0372 32.7672 87.4364 34.9694C87.7524 36.7245 87.3366 39.2578 83.5611 41.4268C81.2658 42.7515 78.7543 43.4138 76.0931 43.4138ZM45.5394 46.8246C43.6267 46.8246 41.9302 47.2717 40.3334 48.1823C39.0528 48.9109 38.5205 49.5732 38.5538 49.9043C38.5538 50.0037 38.7534 50.964 41.3979 52.4873C43.6599 53.7788 45.8887 54.4908 48.0509 54.6067C50.1632 54.7226 52.026 54.2755 53.7558 53.2821C54.6207 52.7853 55.5188 52.0734 55.4357 51.5601C55.4024 51.3779 55.1363 50.3679 52.4086 48.795C50.3129 47.5863 48.1507 46.9405 46.0051 46.8412C45.8388 46.8412 45.6725 46.8412 45.5061 46.8412L45.5394 46.8246ZM48.6663 59.2097C48.3835 59.2097 48.1174 59.2097 47.8347 59.1931C44.9406 59.0441 41.9967 58.1334 39.1027 56.4611C35.9259 54.6232 34.246 52.6694 33.9799 50.4507C33.7803 48.7784 34.3292 46.3444 38.0215 44.2251C40.4831 42.8011 43.2275 42.1554 46.2047 42.2713C49.1154 42.3872 51.9761 43.2482 54.7205 44.8211C57.9638 46.6922 59.6936 48.6791 60.0096 50.9309C60.2591 52.6529 59.7601 55.1365 56.0677 57.2724C53.8057 58.5805 51.3108 59.2262 48.6497 59.2262L48.6663 59.2097Z" fill="#002B2E"/>
<path fill-rule="evenodd" clip-rule="evenodd" d="M17.8968 70.8331V45.947L5.62207 38.877V63.763L17.8968 70.8331Z" fill="#00F5C8"/>
<path fill-rule="evenodd" clip-rule="evenodd" d="M7.91672 62.4388L15.6009 66.8597V47.2721L7.91672 42.8512V62.4388ZM17.8962 73.1184C17.497 73.1184 17.0978 73.0191 16.7485 72.8039L4.47381 65.7338C3.75861 65.3198 3.32617 64.5582 3.32617 63.7469V38.8608C3.32617 38.033 3.75861 37.2879 4.47381 36.8739C5.189 36.46 6.07052 36.46 6.76908 36.8739L19.0438 43.944C19.759 44.358 20.1914 45.103 20.1914 45.9309V70.8169C20.1914 71.6448 19.759 72.3899 19.0438 72.8039C18.6945 73.0025 18.2953 73.1184 17.8962 73.1184Z" fill="#002B2E"/>
</g>
<defs>
<clipPath id="clip0_65_10624">
<rect width="89" height="86" fill="white"/>
</clipPath>
</defs>
</svg>
