<svg width="42" height="42" viewBox="0 0 42 42" fill="none" xmlns="http://www.w3.org/2000/svg">
<path fill-rule="evenodd" clip-rule="evenodd" d="M0 42V8.69077L8.69077 0H42V34.6683L34.6683 42H0ZM22.205 21.8235C22.205 20.8906 21.4329 20.1186 20.5 20.1186C19.1489 20.1186 18.3447 21.5662 18.9881 22.6921C19.6636 23.8502 21.3042 23.8502 21.9798 22.6921C22.1085 22.4347 22.205 22.1452 22.205 21.8235ZM24.7167 21.4709C24.7252 20.656 24.7384 19.3816 24.489 18.7996C24.3281 18.3493 23.9743 17.9954 23.5239 17.8346C22.9419 17.5851 21.6676 17.5983 20.8527 17.6068C20.7216 17.6081 20.6025 17.6094 20.5 17.6094C20.3922 17.6094 20.2681 17.6081 20.1326 17.6068C19.297 17.5983 18.0252 17.5855 17.4439 17.8346C16.9936 17.9954 16.6397 18.3493 16.4789 18.7996C16.2452 19.413 16.2502 20.7953 16.2531 21.5984C16.2534 21.6799 16.2537 21.7554 16.2537 21.8235C16.2537 21.8948 16.2534 21.9731 16.2531 22.0572L16.2531 22.0583C16.2502 22.8857 16.2454 24.2666 16.4789 24.8796C16.6397 25.33 16.9936 25.6838 17.4439 25.8447C18.0252 26.0938 19.297 26.0809 20.1326 26.0725C20.2681 26.0711 20.3922 26.0699 20.5 26.0699C20.6025 26.0699 20.7216 26.0711 20.8527 26.0724C21.6676 26.0809 22.9419 26.0941 23.5239 25.8447C23.9743 25.6838 24.3281 25.33 24.489 24.8796C24.7381 24.2984 24.7252 23.0265 24.7168 22.191C24.7154 22.0554 24.7142 21.9313 24.7142 21.8235C24.7142 21.721 24.7154 21.6019 24.7167 21.4709ZM23.1379 21.8235C23.1379 23.3033 21.9476 24.4936 20.5 24.4614C18.4412 24.4614 17.1866 22.2739 18.1838 20.5046C19.2132 18.7675 21.7546 18.7675 22.784 20.5046C23.0092 20.9228 23.1379 21.3732 23.1379 21.8235ZM23.8456 19.0892C23.8456 19.443 23.5561 19.7004 23.2344 19.7004C22.7518 19.7004 22.4623 19.1857 22.6875 18.7675C22.9449 18.3814 23.5239 18.3814 23.7491 18.7675C23.8134 18.864 23.8456 18.9926 23.8456 19.0892ZM27.7059 16.1618C27.7059 15.3254 26.9982 14.6176 26.1618 14.6176H14.8382C13.9697 14.6176 13.2941 15.3254 13.2941 16.1618V27.4853C13.2941 28.3539 13.9697 29.0294 14.8382 29.0294H26.1618C26.9982 29.0294 27.7059 28.3539 27.7059 27.4853V16.1618ZM25.5827 19.7325C25.6471 20.5689 25.6471 23.1103 25.5827 23.9467C25.5506 24.7831 25.3575 25.523 24.7785 26.102C24.1673 26.7132 23.4274 26.9062 22.6232 26.9384C21.7546 27.0028 19.2132 27.0028 18.3768 26.9384C17.5404 26.9062 16.8006 26.7132 16.2215 26.102C15.6103 25.523 15.4173 24.7831 15.3851 23.9467C15.3208 23.1103 15.3208 20.5689 15.3851 19.7004C15.4173 18.8961 15.6103 18.1562 16.2215 17.545C16.8006 16.966 17.5404 16.773 18.3768 16.7408C19.2132 16.6765 21.7546 16.6765 22.6232 16.7408C23.4274 16.773 24.1673 16.966 24.7785 17.5772C25.3575 18.1562 25.5506 18.8961 25.5827 19.7325Z" fill="#2EFFD9"/>
</svg>
