<svg width="42" height="42" viewBox="0 0 42 42" fill="none" xmlns="http://www.w3.org/2000/svg">
<path fill-rule="evenodd" clip-rule="evenodd" d="M0 42V8.69077L8.69077 0H42V34.6683L34.6683 42H0ZM27.8539 18.9283V18.4779C28.4972 17.9954 29.0763 17.4164 29.5267 16.7408C28.9476 16.9982 28.2721 17.1912 27.5965 17.2555C28.3042 16.8373 28.8189 16.1939 29.0763 15.3897C28.4329 15.7757 27.693 16.0653 26.9531 16.2261C26.3097 15.5506 25.4412 15.1645 24.4761 15.1645C22.6103 15.1645 21.0983 16.6765 21.0983 18.5423C21.0983 18.7996 21.1305 19.057 21.1949 19.3143C18.3961 19.1535 15.8869 17.8024 14.2142 15.7757C13.9246 16.2583 13.7638 16.8373 13.7638 17.4807C13.7638 18.6388 14.3428 19.6682 15.2757 20.2794C14.7289 20.2472 14.182 20.1186 13.7316 19.8612V19.8934C13.7316 21.534 14.8897 22.8851 16.4338 23.2068C16.1765 23.2711 15.8548 23.3355 15.5653 23.3355C15.3654 23.3355 15.1909 23.3101 14.9968 23.282L14.9219 23.2711C15.3401 24.6222 16.5947 25.5873 18.0744 25.6195C16.9164 26.5202 15.4687 27.0671 13.8925 27.0671C13.6029 27.0671 13.3456 27.0349 13.0882 27.0028C14.568 27.9678 16.3373 28.5147 18.2675 28.5147C24.4761 28.5147 27.8539 23.3998 27.8539 18.9283Z" fill="#2EFFD9"/>
</svg>
