<svg width="42" height="42" viewBox="0 0 42 42" fill="none" xmlns="http://www.w3.org/2000/svg">
<path fill-rule="evenodd" clip-rule="evenodd" d="M0 42V8.69077L8.69077 0H42V34.6683L34.6683 42H0ZM29.2822 21.8557C29.2822 21.8557 29.2822 18.9605 28.8961 17.6094C28.7031 16.8373 28.0919 16.2261 27.352 16.0331C25.9688 15.6471 20.5 15.6471 20.5 15.6471C20.5 15.6471 14.9991 15.6471 13.6158 16.0331C12.8759 16.2261 12.2647 16.8373 12.0717 17.6094C11.6857 18.9605 11.6857 21.8557 11.6857 21.8557C11.6857 21.8557 11.6857 24.7188 12.0717 26.102C12.2647 26.8741 12.8759 27.4531 13.6158 27.6461C14.9991 28 20.5 28 20.5 28C20.5 28 25.9688 28 27.352 27.6461C28.0919 27.4531 28.7031 26.8741 28.8961 26.102C29.2822 24.7188 29.2822 21.8557 29.2822 21.8557ZM23.2665 21.8557L18.6985 24.4614V19.25L23.2665 21.8557Z" fill="#2EFFD9"/>
</svg>
