<svg width="42" height="42" viewBox="0 0 42 42" fill="none" xmlns="http://www.w3.org/2000/svg">
    <path fill-rule="evenodd" clip-rule="evenodd" d="M0 42V8.69077L8.69077 0H42V34.6683L34.6683 42H0ZM27.5892 18.9283V18.4779C28.2325 17.9954 28.8116 17.4164 29.2619 16.7408C28.6829 16.9982 28.0074 17.1912 27.3318 17.2555C28.0395 16.8373 28.5542 16.1939 28.8116 15.3897C28.1682 15.7757 27.4283 16.0653 26.6884 16.2261C26.045 15.5506 25.1765 15.1645 24.2114 15.1645C22.3456 15.1645 20.8336 16.6765 20.8336 18.5423C20.8336 18.7996 20.8658 19.057 20.9301 19.3143C18.1314 19.1535 15.6222 17.8024 13.9494 15.7757C13.6599 16.2583 13.4991 16.8373 13.4991 17.4807C13.4991 18.6388 14.0781 19.6682 15.011 20.2794C14.4642 20.2472 13.9173 20.1186 13.4669 19.8612V19.8934C13.4669 21.534 14.625 22.8851 16.1691 23.2068C15.9118 23.2711 15.5901 23.3355 15.3006 23.3355C15.1007 23.3355 14.9262 23.3101 14.7321 23.282L14.732 23.282L14.6572 23.2711C15.0754 24.6222 16.33 25.5873 17.8097 25.6195C16.6517 26.5202 15.204 27.0671 13.6278 27.0671C13.3382 27.0671 13.0809 27.0349 12.8235 27.0028C14.3033 27.9678 16.0726 28.5147 18.0028 28.5147C24.2114 28.5147 27.5892 23.3998 27.5892 18.9283Z" fill="#002B2E"/>
</svg>
