<svg width="42" height="42" viewBox="0 0 42 42" fill="none" xmlns="http://www.w3.org/2000/svg">
<path fill-rule="evenodd" clip-rule="evenodd" d="M0 42V8.69077L8.69077 0H42V34.6683L34.6683 42H0ZM27.7059 15.6792C27.7059 15.1002 27.2233 14.6176 26.6765 14.6176H14.2914C13.7445 14.6176 13.2941 15.1002 13.2941 15.6792V28C13.2941 28.579 13.7445 29.0294 14.2914 29.0294H26.6765C27.2233 29.0294 27.7059 28.579 27.7059 28V15.6792ZM17.6369 20.1186V26.9706H15.5138V20.1186H17.6369ZM17.7978 17.9311C17.7978 18.6066 17.2509 19.1535 16.5754 19.1535C15.8676 19.1535 15.3208 18.6066 15.3208 17.9311C15.3208 17.2555 15.8676 16.6765 16.5754 16.6765C17.2509 16.6765 17.7978 17.2555 17.7978 17.9311ZM25.6471 23.2068V26.9706H23.4917V23.625C23.4917 22.8529 23.4917 21.8235 22.398 21.8235C21.2721 21.8235 21.1112 22.6921 21.1112 23.5928V26.9706H18.9881V20.1186H21.0147V21.0515H21.0469C21.3364 20.5046 22.0441 19.9256 23.0735 19.9256C25.2289 19.9256 25.6471 21.3732 25.6471 23.2068Z" fill="#002B2E"/>
</svg>
