<svg width="155" height="30" viewBox="0 0 155 30" fill="none" xmlns="http://www.w3.org/2000/svg">
<g clip-path="url(#clip0_124_5458)">
<path d="M37.8157 7.02637C41.0525 7.02637 43.7367 8.44742 43.7367 11.6053C43.7367 12.8685 43.342 14.1316 41.9209 14.7632C43.4209 15.5527 44.2104 17.1316 44.2104 18.5527C44.2104 22.1843 40.8946 23.2895 37.8946 23.3685H29.4473V7.02637H37.8157ZM34.0262 13.2632H37.7367C38.6841 13.2632 39.2367 12.7895 39.2367 12.079C39.2367 11.3685 38.6841 10.8158 37.8157 10.8158H34.1052V13.2632H34.0262ZM34.0262 19.8158H37.8946C39.0788 19.8158 39.6315 19.1843 39.6315 18.2369C39.6315 17.3685 39.0788 16.6579 37.8946 16.6579H34.0262V19.8158ZM61.263 23.4474H56.1315L52.342 18.1579H50.7631V23.4474H46.1052V7.02637H54.0788C58.263 7.02637 60.4736 9.71058 60.4736 12.6316C60.4736 14.6053 59.763 16.3422 56.9999 17.5264L61.263 23.0527V23.4474ZM50.7631 10.7369V14.6843H54.1578C55.342 14.6843 55.8946 13.7369 55.8946 12.7895C55.8946 11.7632 55.342 10.7369 54.0788 10.7369H50.7631V10.7369Z" fill="white"/>
<path d="M73.1841 20.6841H65.842L64.7368 23.3683H59.842L67.1841 7.02624H71.842L79.1841 23.3683H74.2105L73.1841 20.6841V20.6841ZM69.5526 11.6052L67.421 16.8157H71.6052L69.5526 11.6052V11.6052ZM94.0262 21.3157C92.2104 23.1315 89.921 23.842 87.4736 23.842C81.0789 23.842 78.5526 19.8157 78.5526 15.3947C78.5526 11.2104 81.3947 6.71045 87.4736 6.71045C89.842 6.71045 91.9736 7.49992 93.7894 9.31571L90.9473 12.1578C89.7631 11.0526 88.5789 10.7368 87.4736 10.7368C84.3157 10.7368 83.0526 13.342 83.1315 15.4736C83.1315 17.6052 84.3157 19.9736 87.4736 19.9736C88.5789 19.9736 90.1578 19.4999 91.342 18.3157L94.0262 21.3157V21.3157ZM109.737 7.34203L103.105 15.0789C105.395 17.6052 108 20.5262 110.289 23.1315V23.4473H104.526L99.8683 17.9999V23.4473H95.2104V7.02624H99.8683V12.3947C101.289 10.6578 102.789 8.76308 104.131 7.02624H109.658V7.34203H109.737V7.34203ZM124.579 23.4473H111.474V7.02624H124.263V10.8947H116.053V13.2631H123.789V17.0526H116.053V19.4999H124.579V23.4473V23.4473ZM130.342 10.8947H125.605V7.10519H139.737V10.8947H134.921V23.4473H130.342V10.8947ZM151.105 11.6052C150 10.7368 148.737 10.4999 147.237 10.4999C146.131 10.4999 145.026 10.8157 145.026 11.6841C145.026 12.7894 146.131 12.9473 147.71 13.1052C150.947 13.421 154.342 14.7631 154.342 18.5526C154.342 22.2631 150.868 23.842 147.158 23.842C144.237 23.842 142.105 23.3683 139.816 20.9999L142.342 18.0789C143.921 19.6578 145.737 19.8947 147.158 19.8947C148.658 19.8947 149.763 19.342 149.763 18.4736C149.763 17.6841 148.816 17.1315 147 16.9736C143.447 16.6578 140.368 15.7104 140.368 11.6841C140.368 8.21045 143.763 6.71045 147.237 6.71045C149.684 6.71045 151.579 7.26308 153.395 8.68413L151.105 11.6052V11.6052Z" fill="white"/>
<g clip-path="url(#clip1_124_5458)">
<path d="M19.3985 18.0791C19.5601 18.3159 19.7218 18.4738 19.9643 18.7107C20.9342 19.8159 22.4699 21.3159 22.4699 24.0791C22.4699 25.5002 21.9849 26.7633 20.9342 27.7107C18.9135 29.6054 15.5996 29.7633 14.6297 29.7633H12.2049V26.2896H14.5488C15.1955 26.2896 17.4586 26.1317 18.4285 25.1844C18.7518 24.9475 18.9135 24.5528 18.9135 24.0791C18.9135 22.6581 18.1861 21.9475 17.3778 21.0791C17.1353 20.8423 16.8928 20.6054 16.6503 20.2896C15.5996 18.9475 15.3571 17.1317 16.0846 15.7107C16.1654 15.4738 16.327 15.1581 16.5695 14.9212C16.4079 14.6844 16.2462 14.4475 16.0846 14.1317C15.3571 12.6317 15.5996 10.8949 16.6503 9.55279C16.812 9.39489 16.9736 9.15805 17.1353 9.00016C17.9436 8.05279 18.5902 7.34226 18.5902 5.76331C18.5902 5.28963 18.4285 4.97384 18.1052 4.65805C17.1353 3.71068 14.953 3.55279 14.2255 3.55279H12.124V0.0791016H14.0639C14.6297 0.0791016 18.3477 0.0791018 20.53 2.13173C21.5 3.0791 22.0658 4.34226 22.0658 5.76331C22.0658 8.60542 20.7725 10.1844 19.8026 11.2896C19.6409 11.4475 19.5601 11.6054 19.3985 11.7633C19.156 12.0002 19.0752 12.3949 19.2368 12.6317C19.3985 12.9475 19.9643 13.1844 20.7725 13.1844V16.6581C19.9643 16.6581 19.3985 16.8159 19.2368 17.2107C19.156 17.4475 19.156 17.8423 19.3985 18.0791V18.0791Z" fill="#F6BE1A"/>
<path d="M0.0808105 29.7633H8.56765V26.2896H3.6372V3.55279H8.56765V0.0791016H0.0808105V29.7633Z" fill="#F5A816"/>
</g>
</g>
<defs>
<clipPath id="clip0_124_5458">
<rect width="154.737" height="30" fill="white"/>
</clipPath>
<clipPath id="clip1_124_5458">
<rect width="22.6316" height="30" fill="white"/>
</clipPath>
</defs>
</svg>
