<svg width="170" height="30" viewBox="0 0 170 30" fill="none" xmlns="http://www.w3.org/2000/svg">
<g clip-path="url(#clip0_124_5480)">
<path d="M163.371 21.5236C164.17 21.5236 164.896 21.3268 165.543 20.9307C166.189 20.5345 166.702 19.9952 167.08 19.3102C167.456 18.6253 167.643 17.856 167.643 16.9998C167.643 16.1462 167.456 15.3717 167.08 14.6791C166.704 13.9865 166.192 13.4421 165.543 13.046C164.893 12.6523 164.17 12.453 163.371 12.453C162.571 12.453 161.846 12.6498 161.199 13.046C160.552 13.4421 160.042 13.9839 159.674 14.6791C159.306 15.3717 159.123 16.1462 159.123 16.9998C159.123 17.8535 159.306 18.6253 159.674 19.3102C160.042 19.9952 160.552 20.5345 161.199 20.9307C161.846 21.3242 162.571 21.5236 163.371 21.5236ZM163.371 10.2754C164.603 10.2754 165.728 10.5693 166.745 11.1572C167.762 11.745 168.556 12.5527 169.135 13.575C169.711 14.5999 170 15.7397 170 16.9972C170 18.2547 169.731 19.3972 169.196 20.4195C168.661 21.4444 167.922 22.2469 166.986 22.8271C166.05 23.4072 165.004 23.6986 163.853 23.6986C162.924 23.6986 162.059 23.5044 161.26 23.1185C160.458 22.7325 159.778 22.1907 159.22 21.498V28.0282C159.22 28.3988 159.108 28.6978 158.885 28.9227C158.662 29.1477 158.365 29.2627 157.997 29.2627C157.644 29.2627 157.353 29.1502 157.122 28.9227C156.888 28.6978 156.774 28.3988 156.774 28.0282V16.9998C156.774 15.7423 157.066 14.6025 157.649 13.5775C158.233 12.5527 159.027 11.7476 160.027 11.1597C161.021 10.5693 162.138 10.2754 163.371 10.2754Z" fill="#2EFFD9"/>
<path d="M145.111 21.5236C145.928 21.5236 146.658 21.3294 147.308 20.9435C147.955 20.5575 148.46 20.0208 148.821 19.3358C149.181 18.6509 149.361 17.8713 149.361 17.0024C149.361 16.1308 149.181 15.3487 148.821 14.6561C148.46 13.9635 147.955 13.4217 147.308 13.0357C146.658 12.6498 145.928 12.4555 145.111 12.4555C144.294 12.4555 143.563 12.6498 142.914 13.0357C142.267 13.4217 141.757 13.9635 141.389 14.6561C141.021 15.3487 140.836 16.1308 140.836 17.0024C140.836 17.8739 141.018 18.6509 141.389 19.3358C141.757 20.0208 142.264 20.5575 142.914 20.9435C143.561 21.3294 144.294 21.5236 145.111 21.5236ZM145.111 23.6986C143.83 23.6986 142.686 23.4124 141.678 22.8399C140.671 22.2674 139.884 21.4725 139.326 20.4578C138.766 19.4432 138.486 18.2905 138.486 16.9998C138.486 15.6937 138.766 14.5335 139.326 13.5162C139.887 12.499 140.671 11.7067 141.678 11.1342C142.686 10.5617 143.83 10.2754 145.111 10.2754C146.374 10.2754 147.508 10.5617 148.508 11.1342C149.508 11.7067 150.292 12.5015 150.86 13.5162C151.428 14.5309 151.713 15.6937 151.713 16.9998C151.713 18.2905 151.433 19.4432 150.873 20.4578C150.312 21.475 149.533 22.2674 148.531 22.8399C147.531 23.4124 146.39 23.6986 145.111 23.6986Z" fill="#2EFFD9"/>
<path d="M127.372 10.2529C128.476 10.2529 129.468 10.4958 130.348 10.9788C131.228 11.4619 131.916 12.1673 132.413 13.095C132.911 14.0228 133.157 15.1397 133.157 16.4457V22.3957C133.157 22.7509 133.04 23.0449 132.809 23.28C132.576 23.5126 132.284 23.6301 131.933 23.6301C131.581 23.6301 131.289 23.5126 131.056 23.28C130.825 23.0449 130.708 22.7509 130.708 22.3957V16.4431C130.708 15.1371 130.361 14.1506 129.663 13.4809C128.968 12.8114 128.042 12.4765 126.89 12.4765C126.218 12.4765 125.606 12.6145 125.053 12.888C124.5 13.1615 124.068 13.5321 123.756 13.9998C123.445 14.4675 123.287 14.9914 123.287 15.5716V22.3906C123.287 22.7459 123.176 23.0397 122.952 23.2749C122.729 23.5074 122.432 23.625 122.064 23.625C121.712 23.625 121.42 23.5074 121.189 23.2749C120.958 23.0397 120.841 22.7459 120.841 22.3906V5.94638C120.841 5.57579 120.958 5.27675 121.189 5.05184C121.423 4.82693 121.714 4.71191 122.064 4.71191C122.432 4.71191 122.729 4.82437 122.952 5.05184C123.176 5.27675 123.287 5.57579 123.287 5.94638V11.8708C123.8 11.3545 124.408 10.9558 125.111 10.6746C125.819 10.3935 126.571 10.2529 127.372 10.2529Z" fill="#2EFFD9"/>
<path d="M110.272 23.6987C109.183 23.6987 108.158 23.53 107.199 23.1901C106.237 22.8527 105.487 22.408 104.941 21.8611C104.733 21.6515 104.629 21.401 104.629 21.1122C104.629 20.7263 104.789 20.4119 105.109 20.1692C105.413 19.9442 105.692 19.8292 105.948 19.8292C106.268 19.8292 106.572 19.9749 106.862 20.2637C107.166 20.6011 107.623 20.8975 108.229 21.1454C108.838 21.3959 109.485 21.5212 110.175 21.5212C111.089 21.5212 111.797 21.3678 112.299 21.0611C112.804 20.7544 113.055 20.3429 113.055 19.8267C113.055 19.3257 112.806 18.9117 112.312 18.5819C111.814 18.2522 110.974 17.9737 109.789 17.7462C106.717 17.1507 105.179 15.8753 105.179 13.9252C105.179 13.1355 105.41 12.4659 105.874 11.9189C106.339 11.3694 106.948 10.9604 107.699 10.6844C108.45 10.4109 109.252 10.2729 110.099 10.2729C111.139 10.2729 112.073 10.4417 112.895 10.7816C113.719 11.1215 114.372 11.5867 114.851 12.1847C115.059 12.4429 115.163 12.701 115.163 12.9592C115.163 13.2326 115.026 13.4831 114.754 13.708C114.579 13.8384 114.354 13.9022 114.082 13.9022C113.667 13.9022 113.291 13.7489 112.953 13.4422C112.552 13.0716 112.129 12.8084 111.679 12.655C111.231 12.5017 110.688 12.4249 110.048 12.4249C109.312 12.4249 108.709 12.5502 108.237 12.8007C107.765 13.0512 107.529 13.4013 107.529 13.8511C107.529 14.1732 107.61 14.4441 107.77 14.6613C107.93 14.8786 108.234 15.0804 108.684 15.267C109.132 15.4511 109.779 15.6325 110.629 15.8114C112.375 16.1667 113.61 16.6574 114.339 17.2862C115.067 17.9149 115.432 18.7302 115.432 19.7295C115.432 20.4707 115.232 21.1454 114.831 21.7487C114.43 22.3518 113.842 22.8297 113.065 23.1748C112.294 23.5249 111.36 23.6987 110.272 23.6987Z" fill="#2EFFD9"/>
<path d="M76.8187 10.2529C77.9223 10.2529 78.9144 10.4958 79.7944 10.9788C80.6751 11.4619 81.3623 12.1673 81.8601 13.095C82.3573 14.0228 82.603 15.1397 82.603 16.4457V22.3957C82.603 22.7509 82.4865 23.0449 82.2558 23.28C82.0244 23.5126 81.7301 23.6301 81.378 23.6301C81.0251 23.6301 80.733 23.5126 80.5023 23.28C80.2715 23.0449 80.1551 22.7509 80.1551 22.3957V16.4431C80.1551 15.1371 79.8073 14.1506 79.1094 13.4809C78.4144 12.8114 77.488 12.4765 76.3365 12.4765C75.6644 12.4765 75.053 12.6145 74.4994 12.888C73.9465 13.1615 73.5151 13.5321 73.203 13.9998C72.8908 14.4675 72.7365 14.9914 72.7365 15.5716V22.3906C72.7365 22.7459 72.6244 23.0397 72.3987 23.2749C72.1758 23.5074 71.8787 23.625 71.5108 23.625C71.1582 23.625 70.8664 23.5074 70.633 23.2749C70.4021 23.0397 70.2854 22.7459 70.2854 22.3906V5.94638C70.2854 5.57579 70.4021 5.27675 70.633 5.05184C70.8664 4.82693 71.1582 4.71191 71.5108 4.71191C71.8787 4.71191 72.1758 4.82437 72.3987 5.05184C72.6223 5.27675 72.7365 5.57579 72.7365 5.94638V11.8708C73.2487 11.3545 73.858 10.9558 74.5601 10.6746C75.2658 10.3935 76.0165 10.2529 76.8187 10.2529Z" fill="#2EFFD9"/>
<path d="M63.9448 21.1832C64.234 21.1832 64.4776 21.2956 64.678 21.5231C64.8785 21.748 64.9774 22.0394 64.9774 22.3946C64.9774 22.7499 64.8455 23.0387 64.5816 23.2662C64.3178 23.4911 63.9778 23.6061 63.5617 23.6061H63.1304C62.3464 23.6061 61.631 23.4016 60.9815 22.9901C60.332 22.5786 59.8245 22.0189 59.4566 21.3084C59.0888 20.5979 58.9035 19.8005 58.9035 18.9136V12.9355H57.7999C57.4625 12.9355 57.191 12.8384 56.983 12.6441C56.7749 12.4499 56.6709 12.2097 56.6709 11.9183C56.6709 11.5963 56.7749 11.3381 56.983 11.1439C57.191 10.9496 57.4625 10.8525 57.7999 10.8525H58.9035V7.37408C58.9035 7.0188 59.0152 6.72999 59.2385 6.50252C59.4617 6.27761 59.751 6.1626 60.1036 6.1626C60.4563 6.1626 60.743 6.27505 60.9688 6.50252C61.192 6.72743 61.3037 7.0188 61.3037 7.37408V10.8576H63.3435C63.6784 10.8576 63.9524 10.9548 64.1605 11.149C64.3685 11.3433 64.4725 11.6014 64.4725 11.9234C64.4725 12.2148 64.3685 12.4551 64.1605 12.6493C63.9524 12.8435 63.681 12.9406 63.3435 12.9406H61.3037V18.9136C61.3037 19.5577 61.4788 20.0995 61.8314 20.534C62.184 20.9685 62.6153 21.1857 63.1278 21.1857H63.9448V21.1832Z" fill="#2EFFD9"/>
<path fill-rule="evenodd" clip-rule="evenodd" d="M100.346 14.9831C100.126 14.1627 99.8236 13.4343 99.3972 12.8158C98.92 12.118 98.2807 11.5634 97.5322 11.1366C96.5329 10.5641 95.3986 10.2778 94.135 10.2778C92.8543 10.2778 91.71 10.5641 90.7029 11.1366C89.6929 11.7091 88.9086 12.504 88.3507 13.5186C87.79 14.5333 87.5107 15.6962 87.5107 17.0023C87.5107 17.2093 87.5186 17.4112 87.5315 17.6105C87.5793 18.2827 87.7086 18.9165 87.9222 19.5095C88.0386 19.8392 88.1829 20.1587 88.3507 20.4628C88.9115 21.48 89.695 22.2723 90.7029 22.8448C91.71 23.4173 92.8543 23.7036 94.135 23.7036C95.4165 23.7036 96.5557 23.4173 97.555 22.8448C98.3015 22.418 98.925 21.8685 99.4279 21.1938C99.4786 21.1248 99.5293 21.0558 99.5772 20.9842C99.6029 20.9458 99.6279 20.9075 99.6536 20.8692C99.6915 20.8104 99.7272 20.7516 99.7629 20.6928C99.8057 20.611 99.8386 20.5241 99.8565 20.4347C99.8872 20.2788 99.8765 20.1178 99.8286 19.9593C99.7779 19.7932 99.6915 19.6475 99.5672 19.5248C99.4507 19.4073 99.3057 19.3127 99.1336 19.2411C99.0115 19.1849 98.8822 19.1543 98.7429 19.1517C98.6107 19.1491 98.4715 19.1695 98.3243 19.2155C98.0272 19.3075 97.7936 19.4763 97.6236 19.719L97.5807 19.7728C97.2507 20.2533 96.835 20.6417 96.3322 20.9433C95.6857 21.3293 94.9522 21.5235 94.135 21.5235C93.3186 21.5235 92.5879 21.3293 91.9379 20.9433C91.2915 20.5574 90.7815 20.0207 90.4136 19.3357C90.3343 19.1875 90.2636 19.0367 90.2 18.8782L98.045 16.7185L98.3722 16.629L99.5543 16.3019L99.5879 16.2943C99.8793 16.2073 100.097 16.0413 100.239 15.801C100.392 15.5505 100.425 15.277 100.346 14.9831ZM89.8629 16.9639C89.8679 16.1077 90.0507 15.3384 90.4157 14.6534C90.7836 13.9608 91.2915 13.419 91.9407 13.033C92.5879 12.6471 93.3207 12.4528 94.1379 12.4528C94.955 12.4528 95.6857 12.6471 96.335 13.033C96.9843 13.419 97.4865 13.9608 97.8472 14.6534C97.865 14.6866 97.88 14.7199 97.8979 14.7531L89.8629 16.9639Z" fill="#2EFFD9"/>
<path fill-rule="evenodd" clip-rule="evenodd" d="M14.4765 9.02578C16.8335 9.02578 18.7465 7.10123 18.7465 4.72431C18.7465 2.34995 16.8361 0.422852 14.4765 0.422852C10.4806 0.422852 6.86011 2.05603 4.23926 4.69364C2.33642 6.61562 0.958763 9.06407 0.349854 11.8065C0.786242 9.89985 2.48358 8.47628 4.51073 8.47628C5.14502 8.47628 5.74886 8.61685 6.28926 8.86728C7.75825 9.54714 8.78075 11.0423 8.78075 12.7777C8.78075 13.0921 8.74775 13.3988 8.68175 13.6953C8.93039 12.5707 9.49618 11.5637 10.2776 10.7791C11.3508 9.69543 12.835 9.02578 14.4765 9.02578Z" fill="#2EFFD9"/>
<path fill-rule="evenodd" clip-rule="evenodd" d="M10.2779 19.2388C9.20471 18.1577 8.53993 16.6626 8.53993 15.0089C8.53993 14.5693 8.58564 14.1399 8.67693 13.7284V13.7259C8.6795 13.7156 8.68207 13.7054 8.68457 13.6952C8.68457 13.6952 8.68457 13.6952 8.68457 13.6926C8.748 13.3962 8.781 13.0895 8.781 12.7751C8.781 11.0397 7.76107 9.54456 6.28953 8.8647C5.74912 8.6142 5.14529 8.47363 4.51101 8.47363C2.48638 8.47363 0.791586 9.8947 0.35266 11.7988V11.8013C0.347586 11.8269 0.342511 11.8525 0.337438 11.878C0.114171 12.8901 0 13.9355 0 15.0089C0 19.0343 1.62122 22.6815 4.23954 25.3191C5.37109 26.459 6.68786 27.4098 8.13907 28.1228C6.7386 27.4174 5.77703 25.9581 5.77703 24.2738C5.77703 23.2796 6.11193 22.3646 6.67264 21.6387C7.45407 20.6266 8.67443 19.9748 10.047 19.9748C10.6965 19.9748 11.3131 20.1206 11.8636 20.3813C11.275 20.0899 10.7371 19.7014 10.2779 19.2388Z" fill="#2EFFD9"/>
<path fill-rule="evenodd" clip-rule="evenodd" d="M17.8303 19.566C16.96 20.4426 15.8463 20.9895 14.4763 20.9895C13.5654 20.9895 12.7028 20.7825 11.934 20.4145C11.9112 20.4042 11.8883 20.394 11.868 20.3812C11.3175 20.1206 10.701 19.9723 10.0515 19.9723C8.67889 19.9723 7.45854 20.6241 6.67709 21.6362C6.11639 22.3646 5.78149 23.2796 5.78149 24.2712C5.78149 25.9555 6.74307 27.4149 8.14354 28.1203C8.17911 28.1382 8.21711 28.1561 8.25268 28.174C8.25268 28.174 8.25518 28.174 8.25518 28.1765C10.1403 29.0813 12.2486 29.5874 14.4763 29.5874C18.3403 29.5874 21.4533 28.0769 23.8687 25.6462C24.4598 25.0507 25.0028 24.399 25.5 23.7064C24.7186 24.7236 23.4957 25.3805 22.1206 25.3805C20.9053 25.3805 19.8093 24.8693 19.0329 24.0489C18.3022 23.277 17.8531 22.2317 17.8531 21.079C17.8531 20.21 18.1094 19.3998 18.5483 18.7251C18.32 19.0318 18.084 19.313 17.8303 19.566Z" fill="#2EFFD9"/>
<path fill-rule="evenodd" clip-rule="evenodd" d="M34.9079 20.9716C32.5509 20.9716 30.6379 22.8962 30.6379 25.2731C30.6379 27.6475 32.5484 29.5745 34.9079 29.5745C38.9039 29.5745 42.5244 27.9414 45.1452 25.3038C47.048 23.3843 48.4257 20.9358 49.0346 18.1935C48.5982 20.1001 46.9009 21.5237 44.8737 21.5237C44.2394 21.5237 43.6356 21.3831 43.0952 21.1327C41.6262 20.4528 40.6037 18.9576 40.6037 17.2223C40.6037 16.9079 40.6367 16.6012 40.7027 16.3047C40.4541 17.4293 39.8883 18.4363 39.1069 19.2209C38.0311 20.302 36.5469 20.9716 34.9079 20.9716Z" fill="#2EFFD9"/>
<path fill-rule="evenodd" clip-rule="evenodd" d="M39.1079 10.7609C40.1811 11.842 40.8458 13.3397 40.8458 14.9908C40.8458 15.4304 40.8002 15.8598 40.7088 16.2713C40.7088 16.2713 40.7088 16.2713 40.7088 16.2738C40.7063 16.284 40.7037 16.2943 40.7012 16.3045C40.7012 16.3045 40.7012 16.3045 40.7012 16.307C40.6378 16.6035 40.6048 16.9102 40.6048 17.2246C40.6048 18.96 41.6247 20.4551 43.0962 21.135C43.6367 21.3854 44.2405 21.526 44.8748 21.526C46.8994 21.526 48.5942 20.105 49.0331 18.2009C49.0331 18.1984 49.0331 18.1984 49.0331 18.1958C49.0382 18.1702 49.0432 18.1446 49.0509 18.1191C49.2691 17.1121 49.3832 16.0668 49.3832 14.9934C49.3832 10.9679 47.762 7.32072 45.1437 4.68314C44.0122 3.54324 42.6954 2.59247 41.2416 1.87939C42.6421 2.5848 43.6037 4.04418 43.6037 5.72847C43.6037 6.72269 43.2688 7.63764 42.7081 8.3635C41.9267 9.37564 40.7063 10.0274 39.3337 10.0274C38.6842 10.0274 38.0677 9.88172 37.5171 9.621C38.1108 9.90979 38.6462 10.2983 39.1079 10.7609Z" fill="#2EFFD9"/>
<path fill-rule="evenodd" clip-rule="evenodd" d="M34.9079 9.01043C35.8187 9.01043 36.6813 9.21743 37.4501 9.58543C37.4729 9.59571 37.4958 9.60593 37.5161 9.61871C38.0666 9.87936 38.6831 10.0276 39.3326 10.0276C40.7052 10.0276 41.9256 9.37586 42.707 8.36379C43.2677 7.63536 43.6026 6.72038 43.6026 5.72872C43.6026 4.04443 42.6411 2.58505 41.2406 1.87964C41.2025 1.86175 41.167 1.84386 41.1289 1.82597C39.2438 0.921207 37.133 0.412598 34.9053 0.412598C31.0413 0.412598 27.9308 1.91798 25.5206 4.34601C24.9396 4.9313 24.4042 5.57026 23.9146 6.25266C24.696 5.25844 25.9062 4.62204 27.261 4.62204C28.4763 4.62204 29.5723 5.13321 30.3487 5.95108C31.0819 6.72294 31.531 7.76829 31.531 8.92093C31.531 9.80529 31.2646 10.6282 30.8104 11.3106C31.0413 10.9886 31.29 10.6921 31.5538 10.4264C32.4266 9.55221 33.5378 9.01043 34.9079 9.01043Z" fill="#2EFFD9"/>
<path fill-rule="evenodd" clip-rule="evenodd" d="M18.5433 18.7249C18.1019 19.4021 17.8481 20.2098 17.8481 21.0788C17.8481 22.2314 18.2972 23.2768 19.0279 24.0486C19.8043 24.8691 20.9029 25.3802 22.1156 25.3802C23.4907 25.3802 24.7161 24.7234 25.4976 23.7061C25.5737 23.5989 25.6498 23.4915 25.7234 23.3816C27.1949 21.2142 28.2301 18.6456 28.8516 15.9646C29.2449 14.2726 29.8538 12.7084 30.6911 11.4816C30.7316 11.4229 30.7723 11.3641 30.8129 11.3079C31.267 10.6254 31.5334 9.8025 31.5334 8.91814C31.5334 7.7655 31.0844 6.72014 30.3511 5.94828C29.5747 5.12786 28.4787 4.6167 27.2634 4.6167C25.9061 4.6167 24.6984 5.2531 23.9144 6.24731C23.8154 6.38788 23.7165 6.52846 23.6201 6.67159C22.1739 8.821 21.1591 11.3615 20.5426 14.0145C20.1544 15.6911 19.548 17.2425 18.7209 18.4667C18.6651 18.5562 18.6042 18.6431 18.5433 18.7249Z" fill="#2EFFD9"/>
</g>
<defs>
<clipPath id="clip0_124_5480">
<rect width="170" height="30" fill="white"/>
</clipPath>
</defs>
</svg>
